/* XPM */
static char * exit_xpm[] = {
"64 64 273 2",
"  	c #5A4634",
". 	c #5C493A",
"+ 	c #59422E",
"@ 	c #594535",
"# 	c #594636",
"$ 	c #594534",
"% 	c #5D4D40",
"& 	c #5E4F43",
"* 	c #5A4635",
"= 	c #594331",
"- 	c #594330",
"; 	c #594635",
"> 	c #594432",
", 	c #594533",
"' 	c #594433",
") 	c #594431",
"! 	c #5C4A3B",
"~ 	c #5D4F43",
"{ 	c #5E4F44",
"] 	c #5A4533",
"^ 	c #5C4C3F",
"/ 	c #5B4B3D",
"( 	c #5C4A3C",
"_ 	c #5A4331",
": 	c #59432F",
"< 	c #59422F",
"[ 	c #5A493B",
"} 	c #5E5146",
"| 	c #5A4736",
"1 	c #55402E",
"2 	c #504033",
"3 	c #504134",
"4 	c #554335",
"5 	c #5D4D41",
"6 	c #5A483A",
"7 	c #503E2E",
"8 	c #46392F",
"9 	c #463A31",
"0 	c #5E5044",
"a 	c #5E5045",
"b 	c #504032",
"c 	c #463B32",
"d 	c #503F32",
"e 	c #554333",
"f 	c #503E30",
"g 	c #4E3D2F",
"h 	c #4A3B2F",
"i 	c #56412E",
"j 	c #56402E",
"k 	c #564334",
"l 	c #594332",
"m 	c #5A4738",
"n 	c #523F2E",
"o 	c #57412E",
"p 	c #5D5045",
"q 	c #5C4B3D",
"r 	c #5E5046",
"s 	c #5B4A3C",
"t 	c #503F31",
"u 	c #5F544C",
"v 	c #696360",
"w 	c #564233",
"x 	c #5B4838",
"y 	c #5D4E41",
"z 	c #756E6B",
"A 	c #817E7E",
"B 	c #6D6460",
"C 	c #4A3D33",
"D 	c #5E4A3C",
"E 	c #6F6560",
"F 	c #6F6661",
"G 	c #6B615B",
"H 	c #7D7877",
"I 	c #736A66",
"J 	c #524235",
"K 	c #625146",
"L 	c #7E7978",
"M 	c #756D6A",
"N 	c #5E4E41",
"O 	c #7F7B7B",
"P 	c #817D7D",
"Q 	c #736B67",
"R 	c #66574D",
"S 	c #7A7472",
"T 	c #554232",
"U 	c #695D55",
"V 	c #6B5F58",
"W 	c #78716F",
"X 	c #4D3927",
"Y 	c #2E2825",
"Z 	c #5D5B5B",
"` 	c #746C6A",
" .	c #746C68",
"..	c #463A30",
"+.	c #504133",
"@.	c #000000",
"#.	c #010101",
"$.	c #3B3938",
"%.	c #76706E",
"&.	c #7A7473",
"*.	c #726A65",
"=.	c #554130",
"-.	c #0C0704",
";.	c #050301",
">.	c #2A211A",
",.	c #807C7B",
"'.	c #787371",
").	c #544F4D",
"!.	c #060302",
"~.	c #483524",
"{.	c #5A4432",
"].	c #5A4737",
"^.	c #3F3125",
"/.	c #010000",
"(.	c #503B29",
"_.	c #7F7B7A",
":.	c #716965",
"<.	c #807C7C",
"[.	c #271B11",
"}.	c #070302",
"|.	c #0D0805",
"1.	c #665951",
"2.	c #130C06",
"3.	c #7E7A79",
"4.	c #797271",
"5.	c #554233",
"6.	c #554131",
"7.	c #625349",
"8.	c #7E7A7A",
"9.	c #787270",
"0.	c #503E2F",
"a.	c #1A1109",
"b.	c #5C4B3C",
"c.	c #797371",
"d.	c #7C7776",
"e.	c #7B7674",
"f.	c #78726F",
"g.	c #756F6C",
"h.	c #706967",
"i.	c #6D6866",
"j.	c #706965",
"k.	c #726B67",
"l.	c #736C69",
"m.	c #746E6B",
"n.	c #706763",
"o.	c #5A4636",
"p.	c #6F6762",
"q.	c #7D7878",
"r.	c #7F7C7B",
"s.	c #716966",
"t.	c #7B7574",
"u.	c #746D69",
"v.	c #5E4B3D",
"w.	c #5C4F46",
"x.	c #524C49",
"y.	c #4F4A48",
"z.	c #504A47",
"A.	c #5D514A",
"B.	c #64564E",
"C.	c #655950",
"D.	c #61534A",
"E.	c #5C4D41",
"F.	c #66574E",
"G.	c #66584F",
"H.	c #6F6561",
"I.	c #726A66",
"J.	c #6E6764",
"K.	c #6F6865",
"L.	c #726A67",
"M.	c #6D625C",
"N.	c #65564C",
"O.	c #3A2D21",
"P.	c #1C140D",
"Q.	c #0A0503",
"R.	c #403023",
"S.	c #1C130B",
"T.	c #050302",
"U.	c #160E08",
"V.	c #1B140D",
"W.	c #2E2319",
"X.	c #382D23",
"Y.	c #1D150F",
"Z.	c #312419",
"`.	c #251B12",
" +	c #1B150F",
".+	c #3D332B",
"++	c #150E08",
"@+	c #35261A",
"#+	c #17100A",
"$+	c #2A231D",
"%+	c #24190F",
"&+	c #291D12",
"*+	c #453322",
"=+	c #362A1F",
"-+	c #60534A",
";+	c #645C56",
">+	c #696561",
",+	c #6B6865",
"'+	c #6C6967",
")+	c #6B6663",
"!+	c #534F4C",
"~+	c #282624",
"{+	c #0C0C0B",
"]+	c #100F0F",
"^+	c #403E3D",
"/+	c #5E5C5A",
"(+	c #6D6A68",
"_+	c #6E6B6A",
":+	c #6E6C6B",
"<+	c #6E6C6C",
"[+	c #6F6D6C",
"}+	c #6F6D6D",
"|+	c #6C6C6C",
"1+	c #6D6D6C",
"2+	c #6D6D6D",
"3+	c #6E6C6A",
"4+	c #6D6B69",
"5+	c #6B6764",
"6+	c #696562",
"7+	c #68615D",
"8+	c #47423F",
"9+	c #060605",
"0+	c #030202",
"a+	c #231C18",
"b+	c #443A32",
"c+	c #60544B",
"d+	c #605248",
"e+	c #605247",
"f+	c #60534B",
"g+	c #635850",
"h+	c #6F6F6E",
"i+	c #707070",
"j+	c #717171",
"k+	c #676767",
"l+	c #4B4B4B",
"m+	c #2A2A2A",
"n+	c #242424",
"o+	c #474747",
"p+	c #525251",
"q+	c #6C6C6B",
"r+	c #717170",
"s+	c #717070",
"t+	c #70706F",
"u+	c #706F6F",
"v+	c #6C6966",
"w+	c #6B6765",
"x+	c #67605B",
"y+	c #655D57",
"z+	c #635A54",
"A+	c #625750",
"B+	c #655C56",
"C+	c #665E59",
"D+	c #68605C",
"E+	c #6C6866",
"F+	c #6D6A69",
"G+	c #6F6E6D",
"H+	c #6E6D6C",
"I+	c #6B6866",
"J+	c #6A6663",
"K+	c #6D6B6A",
"L+	c #706F6E",
"M+	c #635A53",
"N+	c #5C4B3F",
"O+	c #5C4839",
"P+	c #5E4D41",
"Q+	c #463A32",
"R+	c #5B4B3C",
"S+	c #5A4839",
"T+	c #5C4A3D",
"U+	c #5D4C3F",
"V+	c #5D4B3E",
"W+	c #5D4E43",
"X+	c #5D4E42",
"  . .   + @ # # # # # # $ + + + @ # # # # # % & & * = + + - ; # # # # # > + + + , # # # # # # ' + + + $ # # # # # ) + + - @ # # ",
"! & & . + + $ # # # # # # @ + + + @ # # # # ~ { & ] - - + + - @ # # # # # , + + + ' # # # # # # ' + + + ' # # # # # > + + - ; # ",
"^ { & . + + + ) # # # # # # @ + + + $ # # # / ^ ( _ + : = + + < $ # # # # # $ + + + > # # # # # # ' + + + ' # # # # # > + + < $ ",
"[ ^ (   + + + + - # # # # # # # + + + ' # # # # # ) + + < > + + + , # # # # # $ < + + > # # # # # # $ + + + > # # # # # ' + + + ",
"= ; # > + + + + + < # # # # # # # < + + ) # # # # # ' + + + ' + + + ' # # # # # ; - + + = ; # # # # # @ < + + ) # # # # # ' + + ",
"+ - ; # ' + + + + + + # # # # # # # - + + - # # # # # , + + + $ + + + > # # # # ~ } { ] + - ; # # # # # @ - + + = ; # # # # ' + ",
"+ + - @ # $ + + + + + + @ # # # # # # = + + - # , < > # @ + + + $ : + + = ; # # ~ } } | + + 1 2 3 4 # # # ; * & & 5 @ # # # # $ ",
"+ + + < @ # $ + + + + + + @ 4 3 3 4 # # ) + + < + + + > # @ + + + ; = + + < $ # ~ } } 6 > + 7 8 9 3 # # # # 6 0 & % < @ # # # # ",
"+ + + & & a # # + + + + + + b c c 3 # # # > + + + + + + - @ # + + + $ > + + + $ # # # # # ' 7 8 8 d # # # # 6 } a % + + $ # # # ",
"+ + + & & & = @ @ + + + + + 7 9 c 3 # # # # , + + + + + + + $ # + + + @ > + + + > # # # # # e 7 7 1 > # # # # # # ' + + + ' # # ",
"- + + & & & + $ # # + + + + 1 7 f 4 $ $ # # # $ + + + + + + + ' # + + + , $ + + + > # # # # # @ < + + ) # # # # # # ' + + + , # ",
"# - + + + + + + # # # < + + + + + < + + # # # # # + + + + + + + > # + + + ' $ < + + = ; # # # # @ - + + = ; # # # # # $ + + + ' ",
"' # ) + + g h h i @ # # < + + + + + + + + # # # # # + + + + + + + - @ < + + ) ; = + + : $ # } } } ; = + + - @ # # # # # $ + + + ",
"+ > # ' + h 8 8 j + , # } { & + + + + + + + # # # # # + + + + + + + + $ - + + + , > + + + $ } } } # # > + + + $ # # # # # $ + + ",
"+ + > # $ h 8 8 j + + ) } } { + + + + + + + + # # # ^ } { . + + + + + + ' > + + @ # ' + + + a } } # # # > + + + , # # # # # @ - ",
"+ + + = ; k j j + + + + & } } = + + + + + + + + @ # ^ } } ! + + + + + + + > # # # # # , + + + > # # # # # ' + + + ' # # # # # ; ",
"+ + + + > # @ + + + + + + + @ # = + + + + + + + + @ ^ } } ^ ) + + + + < + + - @ # # # # @ < + + = ; # # # # $ + + + > # # # # # ",
"+ + + + + = # # + + + + + + + $ # ) + + + + + + + + ' # # # # ' + + + + = + + + $ # # # # @ - + + - @ # # # # $ < + + = # # # # ",
"+ + + < + + < # # < + + + + + + l # ' + + + + + + + + ) # # # # $ + + + + l + + + > # # # # ; ) + + + $ # # # # $ + + + - ; # # ",
"+ + + + - + + + # # - + + + + + + < # , + + + + + + + + - # # # # $ + + + + > + + + > # # # # # ' + + + ' # # # # ; + + + : ; # ",
"$ + + + + - + + + $ # = + + + + + + + # @ + + + + + + + + + # # # # > + + + + l < + + = ; m 6 6 m ' + + + ) # # # # # + + + + $ ",
"# @ + + + + 1 7 7 1 ) # ) + + + + + + + # @ + + + n 7 7 o + + # # # p } } 6 + + = ) + + + q } } ^ # $ + + + > # # # # # + + + + ",
"# # # + + + 7 8 8 7 + - # > + + + + + + + # # + + h 8 8 j + + + # # r } } s @ + n t t o + . a } ^ # # - + + + = ; # # # # < + + ",
"# # # # < + u v v u + + + # , + + + + + + + , # + h 8 8 j + + + + # r } } s # # h 8 8 w + x % y / # # # ) + + + + $ # # # # : + ",
"> # # # # < z A A B + + + + $ $ + + + + + + + = # n 7 7 o + + + + + s ^ ^ m # # C 8 8 j $ < D E F G # # # ' + + + + ' # # # # - ",
"+ = ; # # # H A A I + + + + + ) # + + + + + + + - # < + + + + $ ) + + $ # # # # J 3 7 o + + K L A M $ # # # ' + + + + > # # # # ",
"+ + + @ # N O A P Q . .   + + + - # + + + + + + + + # < + + + + + > + + ' # # # # # # + + + R O A S + T 3 3 4 , + + + + > # # # ",
"+ + + + + U P A A E & & . < + + + + @ + + + + + + + + > - + + + > # $ + + ) # # # # # # + + V O A W + 7 9 c 3 # @ + + + + - @ # ",
"< + + + X Y Z A P ` & & . + < + + + + @ < + + + + _ ] ] m > + @ # # # @ + + - # # # # # # +  .A A z < 7 8 ..+.# # @ + + + + + $ ",
"# < + + @.#.$.A A %.^ .   + + + + + + + > - + + + . & & . # # # # # # # # + + + = ' # # # # &.A A *.+ =.7 7 1 $ # # # + + + + + ",
"# # -.@.;.>.,.A A W # # + + + + + + + + + < ) + + . & { . + @ # # # # # # # + + + + $ # # # '.A A ).!.~.- + + {.].6 # # < + + + ",
"# ^./.@.(.D _.A A z + # # < + + + + + + + + $ ' + x % % x + + $ # # # # # # # + + + + @ # # :.<.A W [.}.@.< + % & a 6 # # - + + ",
"> # |.|.# + _.A A z + + $ # - + + + + = + + ' # $ + + + + < + + ' # # # # # # # + + + + : $ 1.O A &.+ 2.@.+ < % & & * ; # # - + ",
"+ < ; # # # 3.A A 4.+ + + = # > + + + + = + + < # $ + + + + 5.7 7 6.# # # # # # / % % x + + 7.8.A 9.0.a.[.+ + b.5 % {.< $ # # ) ",
"+ + + $ # # c.A A ,.d.e.S S S &.&.e.d.H H H d.e.S &.f.W z g.h.i.i.j.*.k.k.k.k.k.l.m.:.n.E *. ._.A d.# @ + + + + + > + + + > # # ",
"+ + + + o.^ p.q.A A A A A A A A A A A A A A A A A A A A A A A A A A A A A A A A A A A r.A A A A A '.# # # + + + + + > + + + @ # ",
"+ + + + ] a } s.c.H H O O O O O O O H H H H H O O O O A O A A A A A A A A A A A A A A A A A A A t.u.# # # @ + + + + + = + = @ # ",
"> + + + ] & { ~ # # v.w.x.y.z.A.B.C.D.E.+ + D K F.G.V V H.F k.k.k.k.k.I.*.*.:.J.J.K.g.g.g.L.*.M.N.+ - # # # # + + + + + ) # # # ",
"# $ + + _ . . x $ # O.P.Q.@.@.a.R.& & % # + + $ # # ' + + = # # # # # # > X S.T.@.U.V.W.X.c c 7 + + + < # # # # + + + + + - # # ",
"# # $ + + + + + + $ Y.@.@.@.@.@.Z.& & % + @ # # # # # # + + + # # # # # # `.@.@.@.@.@.@. +.+c 3 + + + + + # # # # + + - + + < # ",
"# # # ; + + + + + + ++@.@.@.@.@.@+] ] {.+ + @ # c c c # # + + + + # # # # #+@.@.@.@.@.@.@.$+c 3 # + + + + + # # # # # # ' + + + ",
"# # # # # + + + + + %+@.@.@.@.&+*++ + + = + + > c c c # # # + % % % # # # V.@.@.@.@.@.@.@.=+# # # # + + + + + # # # # # # $ + + ",
"# -+;+v >+,+'+'+'+)+!+~+{+]+^+/+'+(+_+:+<+[+}+[+|+1+2+}+[+<+3+3+4+4+5+6+7+8+9+@.@.@.@.0+a+b+{ r r c+c+d+e+e+e+e+f+c+c+c+c+c+f+g+",
"h+i+j+j+j+j+j+j+j+j+j+|+k+k+|+j+j+j+j+j+j+j+j+j+j+j+j+j+j+j+j+j+j+j+j+j+j+j+l+m+n+m+o+p+q+r+r+i+r+r+s+s+i+i+i+i+i+i+i+i+i+s+j+s+",
"j+j+j+j+j+j+j+j+j+j+j+j+j+j+j+j+j+j+j+j+j+j+j+j+j+j+j+j+j+j+j+j+j+j+j+j+j+j+j+j+j+j+j+j+j+j+j+j+j+j+j+j+j+j+j+j+j+j+j+j+j+j+j+j+",
"j+j+j+j+j+j+j+j+j+j+j+j+j+j+j+j+j+j+r+j+j+j+j+j+j+j+j+j+j+j+j+j+j+j+j+j+j+j+j+j+j+j+j+j+j+j+j+j+j+j+j+j+j+j+j+j+j+j+j+j+j+j+j+j+",
"i+t+u+u+u+u+u+:+3+'+v+w+)+x+y+z+z+A+B+C+D+D+D+7+7+7+D+D+E+F+G+[+H+I+J+J+w+'+F+3+H+H+:+4+(+K+_+:+H+H+u+u+u+t+i+i+i+i+L+L+G+G+_+'+",
"M+e+e+d+c+c+r N+# # # $ + + = ; # # # # # + + + $ # , + + + + # # # # # # + + + < # # # # # $ + + O+P+e+-+c+c+c+c+r O++ + + @ # ",
"# # + + + $ # # # # # # $ + + < ; # # # # # + + + $ # @ + + + 8 Q+c # # # # - + + + # # # # # @ + + + + + = # # [ ^ ^ * + + + , ",
"# # # + + + $ # # # m ^ ^ R++ + + @ # # S+~ ~ b.+ + , # # + + 8 8 9 # # # # # > + + + # # # # # 4 7 7 1 + + < # ^ } } ^ < + + + ",
"# # # # + + + , # # 6 } } ~ # + + + $ # 6 } } ~ = + + > # # < 8 8 8 + # # # # # $ + + + @ # # # 3 c c d + + + + ^ } } ^ # < + + ",
"# # # # # = + + > # 6 } } ~ # # + + + $ 6 } } ~ # > + + ' # # ) + + + + # # # # # @ + + + $ # # 3 c c 3 $ + + +   q ^ [ # # : + ",
"# # # # # # > + + ) m ^ ^ / # # # + + + $ 6 6 S+= + $ + + > # # ' + + + + $ # # # # # + + + + # 4 3 3 4 # @ + + + + = # # # # = ",
"= ; # # # # # $ + + = ; # # # # # # + + + $ # # + + + $ + + > # # @ + . & & T+# # # # # + + + - # # # # # # @ + + + + < # # # # ",
"+ + @ # # # # # ; + + + @ # # # # # # - + + , # $ + + + > + + - ; # # . & & . + # # # # # - + + < # # # # # # # + + + + + # # # ",
"+ + + $ # # # # # c 8 8 + $ # # # # # # > + + > # @ + + + = + + = ; # ^ { & . + + # # # # # ) + + + # # # # # # # < + + + + $ # ",
"# + + + , # # # # c c 8 + + $ # # # # # # ' + + > # # + + + < + + + @ # # = + + + t 3 3 # # # ' + + + @ # # # # # # - + + + + ) ",
"# # = + + > # # # c c c + + + , # # # # # # ; + + - ; # - + + + + + + @ # # > + + 8 Q+c # # # # S+. .   @ # # # # # # = + + + + ",
"# # m ( U+V+( ; # # # # # - + + ' # # # # # # ; + + - ; # ' + + + + + + $ # # @ + 8 8 9 # # # # ^ r & . + , # # # # # # ) + + + ",
"# # 6 } a & & + @ # # # # # ' + + > # # # # # # # + + + @ # @ + + + + + + + @ # @ 7 7 7 ) # # # ^ } } . + + > # # # # # # > + + ",
"# # 6 } } } & + + $ # # # # # $ + + = ; # # # # # # + + + $ # # < + + + + > # # # # < + + < # # [ ^ ^ [ < + + - # # # # # # , + ",
"> # m ^ W+X+^ + + + $ # # # # # ; + + - ; # # # # # # + + + $ # # - + + + # # # # # # - + + + # # # # # # < + + < # # # # # # $ ",
"+ - ; # # # # # : + + > # # # # # # + + + @ # # # # # # + + + , # # > + + + , # # # # # ' + + + @ # # # # # ) + + + # # # # # # ",
"+ + + $ # # # # # > + + > # # # # # # + + + $ # # # # # # - + + ' # # @ + + + = # # # # # $ + + + , # # # # # ' + + + # # # # # "};
