/* XPM */
static char * floor_xpm[] = {
"64 64 86 1",
" 	c #5A4634",
".	c #5C493A",
"+	c #59422E",
"@	c #594535",
"#	c #594636",
"$	c #594534",
"%	c #5D4D40",
"&	c #5E4F43",
"*	c #5A4635",
"=	c #594331",
"-	c #594330",
";	c #594635",
">	c #594432",
",	c #594533",
"'	c #594433",
")	c #594431",
"!	c #5C4A3B",
"~	c #5D4F43",
"{	c #5E4F44",
"]	c #5A4533",
"^	c #5C4C3F",
"/	c #5B4B3D",
"(	c #5C4A3C",
"_	c #5A4331",
":	c #59432F",
"<	c #59422F",
"[	c #5A493B",
"}	c #5E5146",
"|	c #5A4736",
"1	c #55402E",
"2	c #504033",
"3	c #504134",
"4	c #554335",
"5	c #5D4D41",
"6	c #5A483A",
"7	c #503E2E",
"8	c #46392F",
"9	c #463A31",
"0	c #5E5044",
"a	c #5E5045",
"b	c #504032",
"c	c #463B32",
"d	c #503F32",
"e	c #554333",
"f	c #503E30",
"g	c #4E3D2F",
"h	c #4A3B2F",
"i	c #56412E",
"j	c #56402E",
"k	c #564334",
"l	c #594332",
"m	c #5A4738",
"n	c #523F2E",
"o	c #57412E",
"p	c #5D5045",
"q	c #5C4B3D",
"r	c #5E5046",
"s	c #5B4A3C",
"t	c #503F31",
"u	c #564233",
"v	c #5B4838",
"w	c #5D4E41",
"x	c #4A3D33",
"y	c #524235",
"z	c #554232",
"A	c #5C4B3E",
"B	c #463A30",
"C	c #504133",
"D	c #554130",
"E	c #5A4432",
"F	c #5A4737",
"G	c #554233",
"H	c #554131",
"I	c #5C4B3C",
"J	c #463A32",
"K	c #5A4636",
"L	c #5C4D41",
"M	c #574333",
"N	c #5A4739",
"O	c #5B4B3C",
"P	c #5A4839",
"Q	c #5C4A3D",
"R	c #5D4C3F",
"S	c #5D4B3E",
"T	c #5D4E43",
"U	c #5D4E42",
" .. +@######$+++@#####%&&*=++-;#####>+++,######'+++$#####)++-@##",
"!&&.++$######@+++@####~{&]--++-@#####,+++'######'+++'#####>++-;#",
"^{&.+++)######@+++$###/^(_+:=++<$#####$+++>######'+++'#####>++<$",
"[^( ++++-#######+++'#####)++<>+++,#####$<++>######$+++>#####'+++",
"=;#>+++++<#######<++)#####'+++'+++'#####;-++=;#####@<++)#####'++",
"+-;#'++++++#######-++-#####,+++$+++>####~}{]+-;#####@-++=;####'+",
"++-@#$++++++@######=++-#,<>#@+++$:++=;##~}}|++1234###;*&&5@####$",
"+++<@#$++++++@4334##)++<+++>#@+++;=++<$#~}}6>+7893####60&%<@####",
"+++&&a##++++++bcc3###>++++++-@#+++$>+++$#####'788d####6}a%++$###",
"+++&&&=@@+++++79c3####,+++++++$#+++@>+++>#####e771>######'+++'##",
"-++&&&+$##++++17f4$$###$+++++++'#+++,$+++>#####@<++)######'+++,#",
"#-++++++###<+++++<++#####+++++++>#+++'$<++=;####@-++=;#####$+++'",
"'#)++ghhi@##<++++++++#####+++++++-@<++);=++:$#}}};=++-@#####$+++",
"+>#'+h88j+,#}{&+++++++#####++++++++$-+++,>+++$}}}##>+++$#####$++",
"++>#$h88j++)}}{++++++++###^}{.++++++'>++@#'+++a}}###>+++,#####@-",
"+++=;kjj++++&}}=++++++++@#^}}!+++++++>#####,+++>#####'+++'#####;",
"++++>#@+++++++@#=++++++++@^}}^)++++<++-@####@<++=;####$+++>#####",
"+++++=##+++++++$#)++++++++'####'++++=+++$####@-++-@####$<++=####",
"+++<++<##<++++++l#'++++++++)####$++++l+++>####;)+++$####$+++-;##",
"++++-+++##-++++++<#,++++++++-####$++++>+++>#####'+++'####;+++:;#",
"$++++-+++$#=+++++++#@+++++++++####>++++l<++=;m66m'+++)#####++++$",
"#@++++1771)#)+++++++#@+++n77o++###p}}6++=)+++q}}^#$+++>#####++++",
"###+++7887+-#>+++++++##++h88j+++##r}}s@+ntto+.a}^##-+++=;####<++",
"####<+7887+++#,+++++++,#+h88j++++#r}}s##h88u+v%w/###)++++$####:+",
">####<1771++++$$+++++++=#n77o+++++s^^m##x88j$<++=@###'++++'####-",
"+=;###)++++++++)#+++++++-#<++++$)++$####y37o++++++$###'++++>####",
"+++@###'+ .. +++-#++++++++#<+++++>++'######++++++++z334,++++>###",
"++++++##$.&&.<++++@++++++++>-+++>#$++)######+++++++79c3#@++++-@#",
"<++++++@#A&&.+<++++@<++++_]]m>+@###@++-######+++++<78BC##@+++++$",
"#<++++++-[^. +++++++>-+++.&&.########+++='####-++++D771$###+++++",
"##>+++++++##+++++++++<)++.&{.+@#######++++$####=++++-++EF6##<+++",
"###,+++++++##<++++++++$'+v%%v++$#######++++@####'++++<+%&a6##-++",
">####+++++++$#-++++=++'#$++++<++'#######++++:$###'++++<%&&*;##-+",
"+<;###+++++++=#>++++=++<#$++++G77H######/%%v++$###@++++I5%E<$##)",
"+++$###++++++++#,++++=+++#>+>#3J87+#####^}{.+++,###@+++++>+++>##",
"++++K^^/+++nhhn+#@++++<+++####3cc7++##@@^}}(++++'####+++++>+++@#",
"++++]a}~#++7887++@@++++++++@##4334+++#++m66m@++++=###@+++++=+=@#",
">+++]&{~##-7887+E%5L++++-)++'######<++++-####@++++-####+++++)###",
"#$++_..v$##Mjjo+]&&%#++$##'++=######>++++<##3cc7+++<####+++++-##",
"##$++++++$##'+++]&&%+@######+++######'+++++#3cc3+++++####++-++<#",
"###;++++++>##;++<]]E++@#ccc##++++#####@+++++3cc3#+++++######'+++",
"#####++++++=;#$+++++=++>ccc###+%%%######+++++#####+++++######$++",
"######+++++++@#;+++@##++8cc####{&&+@#####+++++$####<++++@#####@+",
"#######+++++++,#;++-;##+++#####}a&++@#####+++++>^^^#>++++'######",
"'#######++++++:;##+++@##+++>###66N+++,#####+++++{}}##>++++=#####",
"+>#######=+++$#####+++@##>++-######+++)#####=+++&&}###+++++<####",
"++=;######>++)######+++$##++++######+++-#####'++...#####@++++###",
";++-;######$++=;#####+++$#,++++######+++<#####$+++++,#####++++@#",
"##+++$######$++<;#####+++$#@+++8Jc####-+++#####@+++++=##[^^*+++,",
"###+++$###m^^O+++@##P~~I++,##++889#####>+++#####4771++<#^}}^<+++",
"####+++,##6}}~#+++$#6}}~=++>##<888+#####$+++@###3ccd++++^}}^#<++",
"#####=++>#6}}~##+++$6}}~#>++'##)++++#####@+++$##3cc3$+++ q^[##:+",
"######>++)m^^/###+++$66P=+$++>##'++++$#####++++#4334#@++++=####=",
"=;#####$++=;######+++$##+++$++>##@+.&&Q#####+++-######@++++<####",
"++@#####;+++@######-++,#$+++>++-;##.&&.+#####-++<#######+++++###",
"+++$#####c88+$######>++>#@+++=++=;#^{&.++#####)+++#######<++++$#",
"#+++,####cc8++$######'++>##+++<+++@##=+++t33###'+++@######-++++)",
"##=++>###ccc+++,######;++-;#-++++++@##>++8Jc####P.. @######=++++",
"##m(RS(;#####-++'######;++-;#'++++++$##@+889####^r&.+,######)+++",
"##6}a&&+@#####'++>#######+++@#@+++++++@#@777)###^}}.++>######>++",
"##6}}}&++$#####$++=;######+++$##<++++>####<++<##[^^[<++-######,+",
">#m^TU^+++$#####;++-;######+++$##-+++######-+++######<++<######$",
"+-;#####:++>######+++@######+++,##>+++,#####'+++@#####)+++######",
"+++$#####>++>######+++$######-++'##@+++=#####$+++,#####'+++#####"};
