/* XPM */
static char * item_xpm[] = {
"64 64 161 2",
"  	c #5A4634",
". 	c #5C493A",
"+ 	c #59422E",
"@ 	c #594535",
"# 	c #594636",
"$ 	c #594534",
"% 	c #5D4D40",
"& 	c #5E4F43",
"* 	c #5A4635",
"= 	c #594331",
"- 	c #594330",
"; 	c #594635",
"> 	c #594432",
", 	c #594533",
"' 	c #594433",
") 	c #594431",
"! 	c #5C4A3B",
"~ 	c #5D4F43",
"{ 	c #5E4F44",
"] 	c #5A4533",
"^ 	c #5C4C3F",
"/ 	c #5B4B3D",
"( 	c #5C4A3C",
"_ 	c #5A4331",
": 	c #59432F",
"< 	c #59422F",
"[ 	c #5A493B",
"} 	c #5E5146",
"| 	c #5A4736",
"1 	c #55402E",
"2 	c #504033",
"3 	c #504134",
"4 	c #554335",
"5 	c #5D4D41",
"6 	c #5A483A",
"7 	c #503E2E",
"8 	c #46392F",
"9 	c #463A31",
"0 	c #5E5044",
"a 	c #5E5045",
"b 	c #504032",
"c 	c #463B32",
"d 	c #503F32",
"e 	c #554333",
"f 	c #503E30",
"g 	c #4E3D2F",
"h 	c #4A3B2F",
"i 	c #56412E",
"j 	c #56402E",
"k 	c #564334",
"l 	c #594332",
"m 	c #534133",
"n 	c #4F4136",
"o 	c #4B4039",
"p 	c #48403A",
"q 	c #46403B",
"r 	c #48403B",
"s 	c #47413D",
"t 	c #413F3F",
"u 	c #42403E",
"v 	c #43403E",
"w 	c #574435",
"x 	c #4D4137",
"y 	c #47403B",
"z 	c #3F3F3F",
"A 	c #413F3E",
"B 	c #524134",
"C 	c #4A423C",
"D 	c #45403D",
"E 	c #524135",
"F 	c #574230",
"G 	c #5A4738",
"H 	c #433F3D",
"I 	c #6E653B",
"J 	c #8C7F36",
"K 	c #44403D",
"L 	c #5A4A3D",
"M 	c #E5CE12",
"N 	c #403F3E",
"O 	c #47413E",
"P 	c #4F4742",
"Q 	c #594E45",
"R 	c #534436",
"S 	c #41403F",
"T 	c #4E4640",
"U 	c #4A413B",
"V 	c #817638",
"W 	c #55513D",
"X 	c #46403C",
"Y 	c #504137",
"Z 	c #4A4039",
"` 	c #A79730",
" .	c #F3D900",
"..	c #CBB624",
"+.	c #665E3C",
"@.	c #504339",
"#.	c #45403C",
"$.	c #554232",
"%.	c #574B42",
"&.	c #49423E",
"*.	c #5C4B3E",
"=.	c #4C4541",
"-.	c #423F3E",
";.	c #4D4138",
">.	c #463A30",
",.	c #504133",
"'.	c #56493F",
").	c #46413E",
"!.	c #403F3F",
"~.	c #554130",
"{.	c #5A4432",
"].	c #5A4737",
"^.	c #B7A42C",
"/.	c #4C4038",
"(.	c #5C4B3C",
"_.	c #423F3D",
":.	c #4C423B",
"<.	c #5A4636",
"[.	c #45443F",
"}.	c #625B3C",
"|.	c #BCA92A",
"1.	c #D8C21D",
"2.	c #49413C",
"3.	c #44403E",
"4.	c #574537",
"5.	c #5B4838",
"6.	c #998A34",
"7.	c #554538",
"8.	c #4A403A",
"9.	c #504136",
"0.	c #554132",
"a.	c #504135",
"b.	c #574433",
"c.	c #534438",
"d.	c #4F433A",
"e.	c #49403A",
"f.	c #50433A",
"g.	c #534336",
"h.	c #4E433A",
"i.	c #4D423B",
"j.	c #4F443C",
"k.	c #52453C",
"l.	c #56463A",
"m.	c #574434",
"n.	c #524439",
"o.	c #4D433B",
"p.	c #443F3D",
"q.	c #444140",
"r.	c #474341",
"s.	c #4C4642",
"t.	c #463A32",
"u.	c #5B4B3C",
"v.	c #5A4839",
"w.	c #5C4B3D",
"x.	c #5C4A3D",
"y.	c #503F31",
"z.	c #5D4C3F",
"A.	c #5D4B3E",
"B.	c #5E5046",
"C.	c #5D4E43",
"D.	c #5D4E42",
"  . .   + @ # # # # # # $ + + + @ # # # # # % & & * = + + - ; # # # # # > + + + , # # # # # # ' + + + $ # # # # # ) + + - @ # # ",
"! & & . + + $ # # # # # # @ + + + @ # # # # ~ { & ] - - + + - @ # # # # # , + + + ' # # # # # # ' + + + ' # # # # # > + + - ; # ",
"^ { & . + + + ) # # # # # # @ + + + $ # # # / ^ ( _ + : = + + < $ # # # # # $ + + + > # # # # # # ' + + + ' # # # # # > + + < $ ",
"[ ^ (   + + + + - # # # # # # # + + + ' # # # # # ) + + < > + + + , # # # # # $ < + + > # # # # # # $ + + + > # # # # # ' + + + ",
"= ; # > + + + + + < # # # # # # # < + + ) # # # # # ' + + + ' + + + ' # # # # # ; - + + = ; # # # # # @ < + + ) # # # # # ' + + ",
"+ - ; # ' + + + + + + # # # # # # # - + + - # # # # # , + + + $ + + + > # # # # ~ } { ] + - ; # # # # # @ - + + = ; # # # # ' + ",
"+ + - @ # $ + + + + + + @ # # # # # # = + + - # , < > # @ + + + $ : + + = ; # # ~ } } | + + 1 2 3 4 # # # ; * & & 5 @ # # # # $ ",
"+ + + < @ # $ + + + + + + @ 4 3 3 4 # # ) + + < + + + > # @ + + + ; = + + < $ # ~ } } 6 > + 7 8 9 3 # # # # 6 0 & % < @ # # # # ",
"+ + + & & a # # + + + + + + b c c 3 # # # > + + + + + + - @ # + + + $ > + + + $ # # # # # ' 7 8 8 d # # # # 6 } a % + + $ # # # ",
"+ + + & & & = @ @ + + + + + 7 9 c 3 # # # # , + + + + + + + $ # + + + @ > + + + > # # # # # e 7 7 1 > # # # # # # ' + + + ' # # ",
"- + + & & & + $ # # + + + + 1 7 f 4 $ $ # # # $ + + + + + + + ' # + + + , $ + + + > # # # # # @ < + + ) # # # # # # ' + + + , # ",
"# - + + + + + + # # # < + + + + + < + + # # # # # + + + + + + + > # + + + ' $ < + + = ; # # # # @ - + + = ; # # # # # $ + + + ' ",
"' # ) + + g h h i @ # # < + + + + + + + + # # # # # + + + + + + + - @ < + + ) ; = + + : $ # } } } ; = + + - @ # # # # # $ + + + ",
"+ > # ' + h 8 8 j + , # } { & + + + + + + + # # # # # + + + + + + + + $ - + + + , > + + + $ } } } # # > + + + $ # # # # # $ + + ",
"+ + > # $ h 8 8 j + + ) } } { + + + + + + + + # # # ^ } { . + + + + + + ' > + + @ # ' + + + a } } # # # > + + + , # # # # # @ - ",
"+ + + = ; k j j + + + + & } } = + + + + + + + + @ # ^ } } ! + + + + + + + > # # # # # , + + + > # # # # # ' + + + ' # # # # # ; ",
"+ + + + > # @ + + + + + + + @ # = + + + + + + + + @ ^ } } ^ ) + + + + < + + - @ # # # # @ < + + = ; # # # # $ + + + > # # # # # ",
"+ + + + + = # # + + + + + + + $ # ) + + + + + + + + ' # # # # ' + + + + = + + + $ # # # # @ - + + - @ # # # # $ < + + = # # # # ",
"+ + + < + + < # # < + + + + + + l # ' + + m n o p q r r s t u v w + + + + l + + + > # # # # ; ) + + + $ # # # # $ + + + - ; # # ",
"+ + + + - + + + # # - + + + + + + < # , x y z z z z z z z z z z z z z A A A v x + + > # # # # # ' + + + ' # # # # ; + + + : ; # ",
"$ + + + + - + + + $ # = + + + + + + B C D z z z z z z z z z z z z z z z z z z z E F + = ; G 6 6 G ' + + + ) # # # # # + + + + $ ",
"# @ + + + + 1 7 7 1 ) # ) + + + n y H z z z z z z z z z z z z z z z z I J J I z z K p x B L } } ^ # $ + + + > # # # # # + + + + ",
"# # # + + + 7 8 8 7 + - # > + x H z z z z z z z z z z z z z z z z z z J M M J z z z z z N O P Q ^ # # - + + + = ; # # # # < + + ",
"# # # # < + 7 8 8 7 + + + # R y z z z z z z z z z z z z z z z z z z z J M M J z z z z z z z S T / # # # ) + + + + $ # # # # : + ",
"> # # # # < 1 7 7 1 + + + m U z z z z V J J W z z z z z z z z z z z z I J J I z z z z z z z z X Y @ # # # ' + + + + ' # # # # - ",
"+ = ; # # # ) + + + + + + Z z z z z z `  ...+.z z z z z z z z z z z z z z z z z z z z z z z z z p m $ # # # ' + + + + > # # # # ",
"+ + + @ # # # ' +   . . @.#.z z z z z `  ...+.z z z z z z z z z z z z z z z z z z z z z z z z z z Z F $.3 3 4 , + + + + > # # # ",
"+ + + + + + # # $ . & %.&.z z z z z u V J J W z z z z z z z z z z z z z z z z z z z z z z z z z z A B 7 9 c 3 # @ + + + + - @ # ",
"< + + + + + + @ # *.& =.z z z z z -.z z z z z z z z z z z W +.+.W z z z z z z z z z z z z z z z z z ;.7 8 >.,.# # @ + + + + + $ ",
"# < + + + + + + - [ '.).z z z z !.z z z z z z z z z z z z J ....J z z z z z z z z z z z z z z z z z p ~.7 7 1 $ # # # + + + + + ",
"# # > + + + + + + + C z z z z z A z z z z z z z z z z z z J  . .J z z z z z z z z z z z J J J z z z A F - + + {.].6 # # < + + + ",
"# # # , + + + + + m #.z z z z N z z z z z z z z z z z z z V ` ` V z z z z z z z z z z z ^. .^.z z z z x + < + % & a 6 # # - + + ",
"> # # # # + + + + /.z z z z z z z z z z z z z z z z z z z z z z z z z z z z z z z z z z ^. .^.z z z z x + + < % & & * ; # # - + ",
"+ < ; # # # + + + X z z z z z z z z z z z z z z z z z z z z z z z z z z z z z z z z z z J J J z z z z x + + + (.5 % {.< $ # # ) ",
"+ + + $ # # # + F _.z z z z z z z z z z z z z z z z z z z z z z z z z z z z z z z z z z z z z z z z z :.+ + + + + > + + + > # # ",
"+ + + + <.^ ^ / o z z z z z z z ^.^.^.z z z z z z z z z z z z z z z z z z z [.+.+.}.z z z z z z z z z C # + + + + + > + + + @ # ",
"+ + + + ] a } ~ s z z z z z z z ^. .^.z z z z z z z z z z z z z z z z z z z +.|.1.` z z z z z z z z z 2.# @ + + + + + = + = @ # ",
"> + + + ] & { ~ 3.z z z z z z z ^.^.^.z z z z z z z z W J J V z z z z z z z +.1. .` z z z z z z z z z 3.4.# # + + + + + ) # # # ",
"# $ + + _ . . 5.u z z z z z z z z z z z z z z z z z z +... .` z z z z z z z }.` ` 6.z z z z V J J W z N 7.# # # + + + + + - # # ",
"# # $ + + + + + -.z z z z z z z z z z z z z z z z z z +... .` z z z z z z z z z z z z z z z `  ...+.z z m # # # # + + - + + < # ",
"# # # ; + + + + q z z z z z z z z z z z z z z z z z z W J J V z z z z z z z z z z z z z z z `  ...+.z z m + # # # # # # ' + + + ",
"# # # # # + + + 8.z z z z z z z z z z z z z z z z z z z z z z z z z z z z z z z z z z z z z V J J W z z m + + # # # # # # $ + + ",
"# # # # # # + + 9.y z z z z z z z z z z z z z z z z z z z z z z z z z z z z z z z z z z z z z z z z z A 0.+ + + @ # # # # # @ + ",
"# # # # # # # + + m B a./.#.u !.z z z z z z z z z z z z z z z z z z z z z z z z z z z z z z z z z z z s b.+ + + + ' # # # # # # ",
"' # # # # # # # + + + + + + : ; c.d.o Z e.:.f.7.F + F g.f.h.i.j.k.l.F + + m.n.o.C 2.C Z p q p.-.q.r.s.f.# > + + + + = # # # # # ",
"+ > # # # # # # # = + + + $ # # # # # + + + @ # # > + + - # # # # # # + + + ) # # # # # = + + + & & } # # # + + + + + < # # # # ",
"+ + = ; # # # # # # > + + ) # # # # # # + + + $ # # + + + + # # # # # # + + + - # # # # # ' + + . . . # # # # # @ + + + + # # # ",
"; + + - ; # # # # # # $ + + = ; # # # # # + + + $ # , + + + + # # # # # # + + + < # # # # # $ + + + + + , # # # # # + + + + @ # ",
"# # + + + $ # # # # # # $ + + < ; # # # # # + + + $ # @ + + + 8 t.c # # # # - + + + # # # # # @ + + + + + = # # [ ^ ^ * + + + , ",
"# # # + + + $ # # # G ^ ^ u.+ + + @ # # v.~ ~ (.+ + , # # + + 8 8 9 # # # # # > + + + # # # # # 4 7 7 1 + + < # ^ } } ^ < + + + ",
"# # # # + + + , # # 6 } } ~ # + + + $ # 6 } } ~ = + + > # # < 8 8 8 + # # # # # $ + + + @ # # # 3 c c d + + + + ^ } } ^ # < + + ",
"# # # # # = + + > # 6 } } ~ # # + + + $ 6 } } ~ # > + + ' # # ) + + + + # # # # # @ + + + $ # # 3 c c 3 $ + + +   w.^ [ # # : + ",
"# # # # # # > + + ) G ^ ^ / # # # + + + $ 6 6 v.= + $ + + > # # ' + + + + $ # # # # # + + + + # 4 3 3 4 # @ + + + + = # # # # = ",
"= ; # # # # # $ + + = ; # # # # # # + + + $ # # + + + $ + + > # # @ + . & & x.# # # # # + + + - # # # # # # @ + + + + < # # # # ",
"+ + @ # # # # # ; + + + @ # # # # # # - + + , # $ + + + > + + - ; # # . & & . + # # # # # - + + < # # # # # # # + + + + + # # # ",
"+ + + $ # # # # # c 8 8 + $ # # # # # # > + + > # @ + + + = + + = ; # ^ { & . + + # # # # # ) + + + # # # # # # # < + + + + $ # ",
"# + + + , # # # # c c 8 + + $ # # # # # # ' + + > # # + + + < + + + @ # # = + + + y.3 3 # # # ' + + + @ # # # # # # - + + + + ) ",
"# # = + + > # # # c c c + + + , # # # # # # ; + + - ; # - + + + + + + @ # # > + + 8 t.c # # # # v.. .   @ # # # # # # = + + + + ",
"# # G ( z.A.( ; # # # # # - + + ' # # # # # # ; + + - ; # ' + + + + + + $ # # @ + 8 8 9 # # # # ^ B.& . + , # # # # # # ) + + + ",
"# # 6 } a & & + @ # # # # # ' + + > # # # # # # # + + + @ # @ + + + + + + + @ # @ 7 7 7 ) # # # ^ } } . + + > # # # # # # > + + ",
"# # 6 } } } & + + $ # # # # # $ + + = ; # # # # # # + + + $ # # < + + + + > # # # # < + + < # # [ ^ ^ [ < + + - # # # # # # , + ",
"> # G ^ C.D.^ + + + $ # # # # # ; + + - ; # # # # # # + + + $ # # - + + + # # # # # # - + + + # # # # # # < + + < # # # # # # $ ",
"+ - ; # # # # # : + + > # # # # # # + + + @ # # # # # # + + + , # # > + + + , # # # # # ' + + + @ # # # # # ) + + + # # # # # # ",
"+ + + $ # # # # # > + + > # # # # # # + + + $ # # # # # # - + + ' # # @ + + + = # # # # # $ + + + , # # # # # ' + + + # # # # # "};
