/* XPM */
static char * item_empty_xpm[] = {
"64 64 152 2",
"  	c #5A4634",
". 	c #5C493A",
"+ 	c #59422E",
"@ 	c #594535",
"# 	c #594636",
"$ 	c #594534",
"% 	c #5D4D40",
"& 	c #5E4F43",
"* 	c #5A4635",
"= 	c #594331",
"- 	c #594330",
"; 	c #594635",
"> 	c #594432",
", 	c #594533",
"' 	c #594433",
") 	c #594431",
"! 	c #5C4A3B",
"~ 	c #5D4F43",
"{ 	c #5E4F44",
"] 	c #5A4533",
"^ 	c #5C4C3F",
"/ 	c #5B4B3D",
"( 	c #5C4A3C",
"_ 	c #5A4331",
": 	c #59432F",
"< 	c #59422F",
"[ 	c #5A493B",
"} 	c #5E5146",
"| 	c #5A4736",
"1 	c #55402E",
"2 	c #504033",
"3 	c #504134",
"4 	c #554335",
"5 	c #5D4D41",
"6 	c #5A483A",
"7 	c #503E2E",
"8 	c #46392F",
"9 	c #463A31",
"0 	c #5E5044",
"a 	c #5E5045",
"b 	c #504032",
"c 	c #463B32",
"d 	c #503F32",
"e 	c #554333",
"f 	c #503E30",
"g 	c #4E3D2F",
"h 	c #4A3B2F",
"i 	c #56412E",
"j 	c #56402E",
"k 	c #564334",
"l 	c #594332",
"m 	c #534133",
"n 	c #4F4136",
"o 	c #4B4039",
"p 	c #48403A",
"q 	c #46403B",
"r 	c #48403B",
"s 	c #47413D",
"t 	c #413F3F",
"u 	c #42403E",
"v 	c #43403E",
"w 	c #574435",
"x 	c #4D4137",
"y 	c #47403B",
"z 	c #3F3F3F",
"A 	c #413F3E",
"B 	c #524134",
"C 	c #4A423C",
"D 	c #45403D",
"E 	c #3D3D3D",
"F 	c #3E3E3E",
"G 	c #524135",
"H 	c #574230",
"I 	c #5A4738",
"J 	c #433F3D",
"K 	c #3F3E3D",
"L 	c #3E3D3D",
"M 	c #44403D",
"N 	c #5A4A3D",
"O 	c #403F3E",
"P 	c #47413E",
"Q 	c #4F4742",
"R 	c #594E45",
"S 	c #534436",
"T 	c #41403F",
"U 	c #4E4640",
"V 	c #4A413B",
"W 	c #46403C",
"X 	c #504137",
"Y 	c #4A4039",
"Z 	c #504339",
"` 	c #45403C",
" .	c #554232",
"..	c #574B42",
"+.	c #49423E",
"@.	c #5C4B3E",
"#.	c #4C4541",
"$.	c #413E3E",
"%.	c #4D4138",
"&.	c #463A30",
"*.	c #504133",
"=.	c #56493F",
"-.	c #46413E",
";.	c #403F3F",
">.	c #554130",
",.	c #5A4432",
"'.	c #5A4737",
").	c #3F3E3E",
"!.	c #4C4038",
"~.	c #5C4B3C",
"{.	c #423F3D",
"].	c #4C423B",
"^.	c #5A4636",
"/.	c #49413C",
"(.	c #44403E",
"_.	c #574537",
":.	c #5B4838",
"<.	c #554538",
"[.	c #423F3E",
"}.	c #4A403A",
"|.	c #504136",
"1.	c #554132",
"2.	c #504135",
"3.	c #574433",
"4.	c #534438",
"5.	c #4F433A",
"6.	c #49403A",
"7.	c #50433A",
"8.	c #534336",
"9.	c #4E433A",
"0.	c #4D423B",
"a.	c #4F443C",
"b.	c #52453C",
"c.	c #56463A",
"d.	c #574434",
"e.	c #524439",
"f.	c #4D433B",
"g.	c #443F3D",
"h.	c #444140",
"i.	c #474341",
"j.	c #4C4642",
"k.	c #463A32",
"l.	c #5B4B3C",
"m.	c #5A4839",
"n.	c #5C4B3D",
"o.	c #5C4A3D",
"p.	c #503F31",
"q.	c #5D4C3F",
"r.	c #5D4B3E",
"s.	c #5E5046",
"t.	c #5D4E43",
"u.	c #5D4E42",
"  . .   + @ # # # # # # $ + + + @ # # # # # % & & * = + + - ; # # # # # > + + + , # # # # # # ' + + + $ # # # # # ) + + - @ # # ",
"! & & . + + $ # # # # # # @ + + + @ # # # # ~ { & ] - - + + - @ # # # # # , + + + ' # # # # # # ' + + + ' # # # # # > + + - ; # ",
"^ { & . + + + ) # # # # # # @ + + + $ # # # / ^ ( _ + : = + + < $ # # # # # $ + + + > # # # # # # ' + + + ' # # # # # > + + < $ ",
"[ ^ (   + + + + - # # # # # # # + + + ' # # # # # ) + + < > + + + , # # # # # $ < + + > # # # # # # $ + + + > # # # # # ' + + + ",
"= ; # > + + + + + < # # # # # # # < + + ) # # # # # ' + + + ' + + + ' # # # # # ; - + + = ; # # # # # @ < + + ) # # # # # ' + + ",
"+ - ; # ' + + + + + + # # # # # # # - + + - # # # # # , + + + $ + + + > # # # # ~ } { ] + - ; # # # # # @ - + + = ; # # # # ' + ",
"+ + - @ # $ + + + + + + @ # # # # # # = + + - # , < > # @ + + + $ : + + = ; # # ~ } } | + + 1 2 3 4 # # # ; * & & 5 @ # # # # $ ",
"+ + + < @ # $ + + + + + + @ 4 3 3 4 # # ) + + < + + + > # @ + + + ; = + + < $ # ~ } } 6 > + 7 8 9 3 # # # # 6 0 & % < @ # # # # ",
"+ + + & & a # # + + + + + + b c c 3 # # # > + + + + + + - @ # + + + $ > + + + $ # # # # # ' 7 8 8 d # # # # 6 } a % + + $ # # # ",
"+ + + & & & = @ @ + + + + + 7 9 c 3 # # # # , + + + + + + + $ # + + + @ > + + + > # # # # # e 7 7 1 > # # # # # # ' + + + ' # # ",
"- + + & & & + $ # # + + + + 1 7 f 4 $ $ # # # $ + + + + + + + ' # + + + , $ + + + > # # # # # @ < + + ) # # # # # # ' + + + , # ",
"# - + + + + + + # # # < + + + + + < + + # # # # # + + + + + + + > # + + + ' $ < + + = ; # # # # @ - + + = ; # # # # # $ + + + ' ",
"' # ) + + g h h i @ # # < + + + + + + + + # # # # # + + + + + + + - @ < + + ) ; = + + : $ # } } } ; = + + - @ # # # # # $ + + + ",
"+ > # ' + h 8 8 j + , # } { & + + + + + + + # # # # # + + + + + + + + $ - + + + , > + + + $ } } } # # > + + + $ # # # # # $ + + ",
"+ + > # $ h 8 8 j + + ) } } { + + + + + + + + # # # ^ } { . + + + + + + ' > + + @ # ' + + + a } } # # # > + + + , # # # # # @ - ",
"+ + + = ; k j j + + + + & } } = + + + + + + + + @ # ^ } } ! + + + + + + + > # # # # # , + + + > # # # # # ' + + + ' # # # # # ; ",
"+ + + + > # @ + + + + + + + @ # = + + + + + + + + @ ^ } } ^ ) + + + + < + + - @ # # # # @ < + + = ; # # # # $ + + + > # # # # # ",
"+ + + + + = # # + + + + + + + $ # ) + + + + + + + + ' # # # # ' + + + + = + + + $ # # # # @ - + + - @ # # # # $ < + + = # # # # ",
"+ + + < + + < # # < + + + + + + l # ' + + m n o p q r r s t u v w + + + + l + + + > # # # # ; ) + + + $ # # # # $ + + + - ; # # ",
"+ + + + - + + + # # - + + + + + + < # , x y z z z z z z z z z z z z z A A A v x + + > # # # # # ' + + + ' # # # # ; + + + : ; # ",
"$ + + + + - + + + $ # = + + + + + + B C D z z z z z z z z z z z z z z z z E E F G H + = ; I 6 6 I ' + + + ) # # # # # + + + + $ ",
"# @ + + + + 1 7 7 1 ) # ) + + + n y J z z z z z z z z z z z z z z F E K L E E E z M p x B N } } ^ # $ + + + > # # # # # + + + + ",
"# # # + + + 7 8 8 7 + - # > + x J z z z z z z z z z z z z z z z z F E E E E E E z z z z O P Q R ^ # # - + + + = ; # # # # < + + ",
"# # # # < + 7 8 8 7 + + + # S y z z F E E E E z z z z z z z z z z F E E E E E E z z z z z z T U / # # # ) + + + + $ # # # # : + ",
"> # # # # < 1 7 7 1 + + + m V z z F E E E E E E F z z z z z F F E E E E E E E E z z z z z z z W X @ # # # ' + + + + ' # # # # - ",
"+ = ; # # # ) + + + + + + Y z z z F E E E E E E E z z z z F E E E E E E E E E F z z z z z z z z p m $ # # # ' + + + + > # # # # ",
"+ + + @ # # # ' +   . . Z ` z z z E E E E E E E E F F F E E E E E E E E E E E F z z z z z z z z z Y H  .3 3 4 , + + + + > # # # ",
"+ + + + + + # # $ . & ..+.z z z z F E E E E E E E E E E E E E E E E E F E E E E z z z z z z z z z A B 7 9 c 3 # @ + + + + - @ # ",
"< + + + + + + @ # @.& #.z z z z z $.F E E E E E E E E E E E E E E E E F F E E E z z z F F F z z z z %.7 8 &.*.# # @ + + + + + $ ",
"# < + + + + + + - [ =.-.z z z z ;.F E E E E E E E E E E E E E E E E E E z E E E z z z E E E E F z z p >.7 7 1 $ # # # + + + + + ",
"# # > + + + + + + + C z z z z z K E E E E E E E E E E E E E E E E E E E z E E E z z F E E E E E z z A H - + + ,.'.6 # # < + + + ",
"# # # , + + + + + m ` z z z z ).E E E E F F E E E E E E E E E E E E E E z E E E F z E E E E E E z z z x + < + % & a 6 # # - + + ",
"> # # # # + + + + !.z z z z z F E E E E E E E E E E E E E E E E E E E F F E E E F z E E E E E E z z z x + + < % & & * ; # # - + ",
"+ < ; # # # + + + W z z z z z F F E E E E E E E E F E E E E E E E E F E E E E E E F F E E E E E z z z x + + + ~.5 % ,.< $ # # ) ",
"+ + + $ # # # + H {.z z z z z F E E E E E E F F z F E E E E E E E E E E E E E E E E E E E E E E z z z ].+ + + + + > + + + > # # ",
"+ + + + ^.^ ^ / o z z z z z z F E E E E z z z z z F E E E F E E E E E E E E E E E E E E E E E F z z z C # + + + + + > + + + @ # ",
"+ + + + ] a } ~ s z z z z z z E E E E E z z z z z E E E E E E E E E E E E E E E E E E E E E E z z z z /.# @ + + + + + = + = @ # ",
"> + + + ] & { ~ (.z z z z z z E E E E E z z z z F E E E E E E E E E E E E E E E E E E E E E E E E E z (._.# # + + + + + ) # # # ",
"# $ + + _ . . :.u z z z z z z F E E E E z z z z F E E E E E E E E E E E E E E E E E E E E E E E E E F O <.# # # + + + + + - # # ",
"# # $ + + + + + [.z z z z z z z E E E F z z z z F E E E E E E E E E F F E E E E E E E E E E E E E E E z m # # # # + + - + + < # ",
"# # # ; + + + + q z z z z z z z F E E F z z z z z F E E E E E E E F z z z z z F F E E E E E E E E E E z m + # # # # # # ' + + + ",
"# # # # # + + + }.z z z z z z z z F F F z z z z z z F E E E E E F z z z z z z z z z z z F E E E E E F z m + + # # # # # # $ + + ",
"# # # # # # + + |.y z z z z z z z z z z z z z z z z z F F F F F F z z z z z z z z z z z z z F E E E F A 1.+ + + @ # # # # # @ + ",
"# # # # # # # + + m B 2.!.` u ;.z z z z z z z z z z z z z z z z z z z z z z z z z z z z z z z z z z z s 3.+ + + + ' # # # # # # ",
"' # # # # # # # + + + + + + : ; 4.5.o Y 6.].7.<.H + H 8.7.9.0.a.b.c.H + + d.e.f.C /.C Y p q g.[.h.i.j.7.# > + + + + = # # # # # ",
"+ > # # # # # # # = + + + $ # # # # # + + + @ # # > + + - # # # # # # + + + ) # # # # # = + + + & & } # # # + + + + + < # # # # ",
"+ + = ; # # # # # # > + + ) # # # # # # + + + $ # # + + + + # # # # # # + + + - # # # # # ' + + . . . # # # # # @ + + + + # # # ",
"; + + - ; # # # # # # $ + + = ; # # # # # + + + $ # , + + + + # # # # # # + + + < # # # # # $ + + + + + , # # # # # + + + + @ # ",
"# # + + + $ # # # # # # $ + + < ; # # # # # + + + $ # @ + + + 8 k.c # # # # - + + + # # # # # @ + + + + + = # # [ ^ ^ * + + + , ",
"# # # + + + $ # # # I ^ ^ l.+ + + @ # # m.~ ~ ~.+ + , # # + + 8 8 9 # # # # # > + + + # # # # # 4 7 7 1 + + < # ^ } } ^ < + + + ",
"# # # # + + + , # # 6 } } ~ # + + + $ # 6 } } ~ = + + > # # < 8 8 8 + # # # # # $ + + + @ # # # 3 c c d + + + + ^ } } ^ # < + + ",
"# # # # # = + + > # 6 } } ~ # # + + + $ 6 } } ~ # > + + ' # # ) + + + + # # # # # @ + + + $ # # 3 c c 3 $ + + +   n.^ [ # # : + ",
"# # # # # # > + + ) I ^ ^ / # # # + + + $ 6 6 m.= + $ + + > # # ' + + + + $ # # # # # + + + + # 4 3 3 4 # @ + + + + = # # # # = ",
"= ; # # # # # $ + + = ; # # # # # # + + + $ # # + + + $ + + > # # @ + . & & o.# # # # # + + + - # # # # # # @ + + + + < # # # # ",
"+ + @ # # # # # ; + + + @ # # # # # # - + + , # $ + + + > + + - ; # # . & & . + # # # # # - + + < # # # # # # # + + + + + # # # ",
"+ + + $ # # # # # c 8 8 + $ # # # # # # > + + > # @ + + + = + + = ; # ^ { & . + + # # # # # ) + + + # # # # # # # < + + + + $ # ",
"# + + + , # # # # c c 8 + + $ # # # # # # ' + + > # # + + + < + + + @ # # = + + + p.3 3 # # # ' + + + @ # # # # # # - + + + + ) ",
"# # = + + > # # # c c c + + + , # # # # # # ; + + - ; # - + + + + + + @ # # > + + 8 k.c # # # # m.. .   @ # # # # # # = + + + + ",
"# # I ( q.r.( ; # # # # # - + + ' # # # # # # ; + + - ; # ' + + + + + + $ # # @ + 8 8 9 # # # # ^ s.& . + , # # # # # # ) + + + ",
"# # 6 } a & & + @ # # # # # ' + + > # # # # # # # + + + @ # @ + + + + + + + @ # @ 7 7 7 ) # # # ^ } } . + + > # # # # # # > + + ",
"# # 6 } } } & + + $ # # # # # $ + + = ; # # # # # # + + + $ # # < + + + + > # # # # < + + < # # [ ^ ^ [ < + + - # # # # # # , + ",
"> # I ^ t.u.^ + + + $ # # # # # ; + + - ; # # # # # # + + + $ # # - + + + # # # # # # - + + + # # # # # # < + + < # # # # # # $ ",
"+ - ; # # # # # : + + > # # # # # # + + + @ # # # # # # + + + , # # > + + + , # # # # # ' + + + @ # # # # # ) + + + # # # # # # ",
"+ + + $ # # # # # > + + > # # # # # # + + + $ # # # # # # - + + ' # # @ + + + = # # # # # $ + + + , # # # # # ' + + + # # # # # "};
