/* XPM */
static char * mob_xpm[] = {
"64 64 213 2",
"  	c #5A4634",
". 	c #5C493A",
"+ 	c #59422E",
"@ 	c #594535",
"# 	c #594636",
"$ 	c #594534",
"% 	c #5D4D40",
"& 	c #5E4F43",
"* 	c #5A4635",
"= 	c #594331",
"- 	c #594330",
"; 	c #594635",
"> 	c #594432",
", 	c #594533",
"' 	c #594433",
") 	c #594431",
"! 	c #5C4A3B",
"~ 	c #5D4F43",
"{ 	c #5E4F44",
"] 	c #5A4533",
"^ 	c #5C4C3F",
"/ 	c #5B4B3D",
"( 	c #5C4A3C",
"_ 	c #5A4331",
": 	c #59432F",
"< 	c #59422F",
"[ 	c #5A493B",
"} 	c #5E5146",
"| 	c #5A4736",
"1 	c #55402E",
"2 	c #504033",
"3 	c #504134",
"4 	c #554335",
"5 	c #5D4D41",
"6 	c #5A483A",
"7 	c #503E2E",
"8 	c #46392F",
"9 	c #463A31",
"0 	c #5E5044",
"a 	c #5E5045",
"b 	c #504032",
"c 	c #463B32",
"d 	c #503F32",
"e 	c #554333",
"f 	c #503E30",
"g 	c #4E3D2F",
"h 	c #4A3B2F",
"i 	c #56412E",
"j 	c #326717",
"k 	c #495724",
"l 	c #455B22",
"m 	c #575640",
"n 	c #3E6425",
"o 	c #56402E",
"p 	c #37641A",
"q 	c #534B2A",
"r 	c #3C611D",
"s 	c #57553F",
"t 	c #564334",
"u 	c #57492B",
"v 	c #545625",
"w 	c #535A23",
"x 	c #555327",
"y 	c #56502D",
"z 	c #574C33",
"A 	c #5C5542",
"B 	c #565C33",
"C 	c #4F661C",
"D 	c #4B6D10",
"E 	c #487305",
"F 	c #477500",
"G 	c #4B6D11",
"H 	c #4B6D15",
"I 	c #4E661F",
"J 	c #516025",
"K 	c #3E6022",
"L 	c #3E6021",
"M 	c #55532C",
"N 	c #506323",
"O 	c #4C6C16",
"P 	c #487208",
"Q 	c #487404",
"R 	c #436A16",
"S 	c #376719",
"T 	c #55552E",
"U 	c #594332",
"V 	c #3B641B",
"W 	c #50621D",
"X 	c #4C6C12",
"Y 	c #477400",
"Z 	c #487402",
"` 	c #487207",
" .	c #4A700E",
"..	c #4A6F0D",
"+.	c #427207",
"@.	c #4C6C17",
"#.	c #574C32",
"$.	c #396717",
"%.	c #437205",
"&.	c #487403",
"*.	c #487303",
"=.	c #477401",
"-.	c #477402",
";.	c #497209",
">.	c #525B22",
",.	c #4D6916",
"'.	c #487206",
").	c #497208",
"!.	c #49710C",
"~.	c #4D6A1E",
"{.	c #535D2A",
"].	c #555227",
"^.	c #4B6E13",
"/.	c #4A7012",
"(.	c #4D6C1D",
"_.	c #525C21",
":.	c #4C6C11",
"<.	c #457200",
"[.	c #3D6600",
"}.	c #3D6500",
"|.	c #3F6900",
"1.	c #4A7114",
"2.	c #4B6E14",
"3.	c #525E28",
"4.	c #515F1F",
"5.	c #4A700B",
"6.	c #436F00",
"7.	c #294700",
"8.	c #000000",
"9.	c #375C00",
"0.	c #437000",
"a.	c #487307",
"b.	c #4D6A1A",
"c.	c #497108",
"d.	c #515F27",
"e.	c #525D24",
"f.	c #49710D",
"g.	c #3F6800",
"h.	c #487304",
"i.	c #487108",
"j.	c #4C6A19",
"k.	c #4D6915",
"l.	c #477403",
"m.	c #496E0E",
"n.	c #4B6717",
"o.	c #4C5D25",
"p.	c #4A6C11",
"q.	c #496E0F",
"r.	c #4A6B13",
"s.	c #4A6915",
"t.	c #49700B",
"u.	c #47700A",
"v.	c #46432F",
"w.	c #5C4B3E",
"x.	c #4A6E0F",
"y.	c #46601F",
"z.	c #504133",
"A.	c #4E6718",
"B.	c #496F0D",
"C.	c #496F0B",
"D.	c #4A6C12",
"E.	c #487109",
"F.	c #4A6619",
"G.	c #4C6B13",
"H.	c #487107",
"I.	c #49720E",
"J.	c #49720A",
"K.	c #49700A",
"L.	c #5A4432",
"M.	c #5A4737",
"N.	c #4F651B",
"O.	c #53582C",
"P.	c #487306",
"Q.	c #487209",
"R.	c #497109",
"S.	c #497206",
"T.	c #487302",
"U.	c #4C6A14",
"V.	c #555228",
"W.	c #574B2E",
"X.	c #4F641F",
"Y.	c #4E661A",
"Z.	c #4F631C",
"`.	c #4F631E",
" +	c #4F631D",
".+	c #4F6421",
"++	c #4F6420",
"@+	c #52532B",
"#+	c #4E4C29",
"$+	c #4F462B",
"%+	c #554131",
"&+	c #5B4838",
"*+	c #574B32",
"=+	c #564E29",
"-+	c #5C4B3C",
";+	c #463A32",
">+	c #5A4636",
",+	c #523F2E",
"'+	c #5A4738",
")+	c #5C4D41",
"!+	c #574333",
"~+	c #57412E",
"{+	c #5A4739",
"]+	c #5B4B3C",
"^+	c #5A4839",
"/+	c #5C4B3D",
"(+	c #5C4A3D",
"_+	c #503F31",
":+	c #5D4C3F",
"<+	c #5D4B3E",
"[+	c #5E5046",
"}+	c #5D4E43",
"|+	c #5D4E42",
"  . .   + @ # # # # # # $ + + + @ # # # # # % & & * = + + - ; # # # # # > + + + , # # # # # # ' + + + $ # # # # # ) + + - @ # # ",
"! & & . + + $ # # # # # # @ + + + @ # # # # ~ { & ] - - + + - @ # # # # # , + + + ' # # # # # # ' + + + ' # # # # # > + + - ; # ",
"^ { & . + + + ) # # # # # # @ + + + $ # # # / ^ ( _ + : = + + < $ # # # # # $ + + + > # # # # # # ' + + + ' # # # # # > + + < $ ",
"[ ^ (   + + + + - # # # # # # # + + + ' # # # # # ) + + < > + + + , # # # # # $ < + + > # # # # # # $ + + + > # # # # # ' + + + ",
"= ; # > + + + + + < # # # # # # # < + + ) # # # # # ' + + + ' + + + ' # # # # # ; - + + = ; # # # # # @ < + + ) # # # # # ' + + ",
"+ - ; # ' + + + + + + # # # # # # # - + + - # # # # # , + + + $ + + + > # # # # ~ } { ] + - ; # # # # # @ - + + = ; # # # # ' + ",
"+ + - @ # $ + + + + + + @ # # # # # # = + + - # , < > # @ + + + $ : + + = ; # # ~ } } | + + 1 2 3 4 # # # ; * & & 5 @ # # # # $ ",
"+ + + < @ # $ + + + + + + @ 4 3 3 4 # # ) + + < + + + > # @ + + + ; = + + < $ # ~ } } 6 > + 7 8 9 3 # # # # 6 0 & % < @ # # # # ",
"+ + + & & a # # + + + + + + b c c 3 # # # > + + + + + + - @ # + + + $ > + + + $ # # # # # ' 7 8 8 d # # # # 6 } a % + + $ # # # ",
"+ + + & & & = @ @ + + + + + 7 9 c 3 # # # # , + + + + + + + $ # + + + @ > + + + > # # # # # e 7 7 1 > # # # # # # ' + + + ' # # ",
"- + + & & & + $ # # + + + + 1 7 f 4 $ $ # # # $ + + + + + + + ' # + + + , $ + + + > # # # # # @ < + + ) # # # # # # ' + + + , # ",
"# - + + + + + + # # # < + + + + + < + + # # # # # + + + + + + + > # + + + ' $ < + + = ; # # # # @ - + + = ; # # # # # $ + + + ' ",
"' # ) + + g h h i @ # # < + + + + j k l + # # # # # + + + + + + + - @ < + + ) ; = + + : $ # m n j ; = + + - @ # # # # # $ + + + ",
"+ > # ' + h 8 8 o + , # } { & + + + k p j q # # # # # + + + + + + + + $ - + + + , > + + + $ n } } # # > + + + $ # # # # # $ + + ",
"+ + > # $ h 8 8 o + + ) } } { + + + + + k r q # # # ^ } { . + + + + + + ' > + + @ # ' + q r s } } # # # > + + + , # # # # # @ - ",
"+ + + = ; t o o + + + + & } } = + + + + + + p k @ # ^ } } ! + u v w w x x y z # # # # , j + + > # # # # # ' + + + ' # # # # # ; ",
"+ + + + > # @ + + + + + + + @ # = + + + + + q r + @ ^ } A B C D E F E E E E G H I J z K L < + + = ; # # # # $ + + + > # # # # # ",
"+ + + + + = # # + + + + + + + $ # ) + + + + + l p + M N O P F F F F F F F F F F F Q R S T @ - + + - @ # # # # $ < + + = # # # # ",
"+ + + < + + < # # < + + + + + + U # ' + + + + q V W X F F F F F F F Y Z `  ...F F F +.+.@.N #.) + + + $ # # # # $ + + + - ; # # ",
"+ + + + - + + + # # - + + + + + + < # , + + u v $.%.F F F F F F F F F F F &.E *.=.=.-.F F ;.I T ' + + + ' # # # # ; + + + : ; # ",
"$ + + + + - + + + $ # = + + + + + + + # @ >.,.'.F F =.=.F F F F F F F F F F F F F F F ).!.F F ~.{.' + + + ) # # # # # + + + + $ ",
"# @ + + + + 1 7 7 1 ) # ) + + + + + + ].I ^.F F F F F F F =.F F F F F F F F F F F F F F Z /.F F (.T $ + + + > # # # # # + + + + ",
"# # # + + + 7 8 8 7 + - # > + + + + _.:.F F E *.F F <.[.}.|.F F F F F F <.[.[.|.F F F F F =.1.F F 2.3.- + + + = ; # # # # < + + ",
"# # # # < + 7 8 8 7 + + + # , + u 4.5.F F F -.F F F 6.7.8.9.F F F F F F 0.7.8.9.F F F F F F &.a.F F b.z ) + + + + $ # # # # : + ",
"> # # # # < 1 7 7 1 + + + + $ $ W c.F F F F F F F F 0.7.8.9.F F F Y F F 0.7.8.9.-.F F F F F F F =.F a.d.# ' + + + + ' # # # # - ",
"+ = ; # # # ) + + + + + + + + e.f.F =.F =.F F F F F <.[.[.g.Z h.-.Y F F <.[.[.|.F F F F F F F ` ` i.F j.z # ' + + + + > # # # # ",
"+ + + @ # # # ' +   . .   + u k.=.l.l.=.F F l.l.-.F F F F F F F F F F F =.=.-.=.=.F F F F F F m.n.m.F -.o.3 4 , + + + + > # # # ",
"+ + + + + + # # $ . & & . < v h.` p.p.` F q.r.s.t.F F F F F F F F F F F F F F F F h.` ` h.F F m.n.m.F F u.v.3 # @ + + + + - @ # ",
"< + + + + + + @ # w.& & . _.x.F ` n.n.` F q.n.n.t.F F F F F F F F F F F F F F F F ` s.s.` F F ` ` ` F F Y y.z.# # @ + + + + + $ ",
"# < + + + + + + - [ ^ .   A.F F '.B.q.C.h.q.D.D.E.F F F F F F F F F F F F F F F F ` s.s.P ` ` '.F F F F F F.1 $ # # # + + + + + ",
"# # > + + + + + + + # # + G.F &.*.` s.s.H.=.Z *.h.;.I.I.J.*.F F F F F F F F F F F h.` ` '.p.n.t.F F F F F K.].L.M.6 # # < + + + ",
"# # # , + + + + + + + # # N.=.F F ` s.s.` F F F F F F F F F F F F F F F F F F F F F F F l.p.n.t.F F F F F F ].% & a 6 # # - + + ",
"> # # # # + + + + + + + $ O.E F F h.` ` h.F F F F F F F E E &.-.*.E h.E E P.a.Q.c.c.c.` '.K.R.R.E P.S.T.E U.V.% & & * ; # # - + ",
"+ < ; # # # + + + + + + + W.3.X.Y.Z.Z.Z.`.Z.Z. +.+++Z.4.w x @+#+$+%+# # # # # # / % % &++ + $ # # # *+=+=+u + -+5 % L.< $ # # ) ",
"+ + + $ # # # + + + + + + + + # , + + + + = + + + # > + > # 3 ;+8 7 + # # # # # ^ } { . + + + , # # # @ + + + + + > + + + > # # ",
"+ + + + >+^ ^ / + + + ,+h h ,++ # @ + + + + < + + + # # # # 3 c c 7 + + # # @ @ ^ } } ( + + + + ' # # # # + + + + + > + + + @ # ",
"+ + + + ] a } ~ # + + 7 8 8 7 + + @ @ + + + + + + + + @ # # 4 3 3 4 + + + # + + '+6 6 '+@ + + + + = # # # @ + + + + + = + = @ # ",
"> + + + ] & { ~ # # - 7 8 8 7 + L.% 5 )++ + + + - ) + + ' # # # # # # < + + + + - # # # # @ + + + + - # # # # + + + + + ) # # # ",
"# $ + + _ . . &+$ # # !+o o ~++ ] & & % # + + $ # # ' + + = # # # # # # > + + + + < # # 3 c c 7 + + + < # # # # + + + + + - # # ",
"# # $ + + + + + + $ # # ' + + + ] & & % + @ # # # # # # + + + # # # # # # ' + + + + + # 3 c c 3 + + + + + # # # # + + - + + < # ",
"# # # ; + + + + + + > # # ; + + < ] ] L.+ + @ # c c c # # + + + + # # # # # @ + + + + + 3 c c 3 # + + + + + # # # # # # ' + + + ",
"# # # # # + + + + + + = ; # $ + + + + + = + + > c c c # # # + % % % # # # # # # + + + + + # # # # # + + + + + # # # # # # $ + + ",
"# # # # # # + + + + + + + @ # ; + + + @ # # + + 8 c c # # # # { & & + @ # # # # # + + + + + $ # # # # < + + + + @ # # # # # @ + ",
"# # # # # # # + + + + + + + , # ; + + - ; # # + + + # # # # # } a & + + @ # # # # # + + + + + > ^ ^ ^ # > + + + + ' # # # # # # ",
"' # # # # # # # + + + + + + : ; # # + + + @ # # + + + > # # # 6 6 {++ + + , # # # # # + + + + + { } } # # > + + + + = # # # # # ",
"+ > # # # # # # # = + + + $ # # # # # + + + @ # # > + + - # # # # # # + + + ) # # # # # = + + + & & } # # # + + + + + < # # # # ",
"+ + = ; # # # # # # > + + ) # # # # # # + + + $ # # + + + + # # # # # # + + + - # # # # # ' + + . . . # # # # # @ + + + + # # # ",
"; + + - ; # # # # # # $ + + = ; # # # # # + + + $ # , + + + + # # # # # # + + + < # # # # # $ + + + + + , # # # # # + + + + @ # ",
"# # + + + $ # # # # # # $ + + < ; # # # # # + + + $ # @ + + + 8 ;+c # # # # - + + + # # # # # @ + + + + + = # # [ ^ ^ * + + + , ",
"# # # + + + $ # # # '+^ ^ ]++ + + @ # # ^+~ ~ -++ + , # # + + 8 8 9 # # # # # > + + + # # # # # 4 7 7 1 + + < # ^ } } ^ < + + + ",
"# # # # + + + , # # 6 } } ~ # + + + $ # 6 } } ~ = + + > # # < 8 8 8 + # # # # # $ + + + @ # # # 3 c c d + + + + ^ } } ^ # < + + ",
"# # # # # = + + > # 6 } } ~ # # + + + $ 6 } } ~ # > + + ' # # ) + + + + # # # # # @ + + + $ # # 3 c c 3 $ + + +   /+^ [ # # : + ",
"# # # # # # > + + ) '+^ ^ / # # # + + + $ 6 6 ^+= + $ + + > # # ' + + + + $ # # # # # + + + + # 4 3 3 4 # @ + + + + = # # # # = ",
"= ; # # # # # $ + + = ; # # # # # # + + + $ # # + + + $ + + > # # @ + . & & (+# # # # # + + + - # # # # # # @ + + + + < # # # # ",
"+ + @ # # # # # ; + + + @ # # # # # # - + + , # $ + + + > + + - ; # # . & & . + # # # # # - + + < # # # # # # # + + + + + # # # ",
"+ + + $ # # # # # c 8 8 + $ # # # # # # > + + > # @ + + + = + + = ; # ^ { & . + + # # # # # ) + + + # # # # # # # < + + + + $ # ",
"# + + + , # # # # c c 8 + + $ # # # # # # ' + + > # # + + + < + + + @ # # = + + + _+3 3 # # # ' + + + @ # # # # # # - + + + + ) ",
"# # = + + > # # # c c c + + + , # # # # # # ; + + - ; # - + + + + + + @ # # > + + 8 ;+c # # # # ^+. .   @ # # # # # # = + + + + ",
"# # '+( :+<+( ; # # # # # - + + ' # # # # # # ; + + - ; # ' + + + + + + $ # # @ + 8 8 9 # # # # ^ [+& . + , # # # # # # ) + + + ",
"# # 6 } a & & + @ # # # # # ' + + > # # # # # # # + + + @ # @ + + + + + + + @ # @ 7 7 7 ) # # # ^ } } . + + > # # # # # # > + + ",
"# # 6 } } } & + + $ # # # # # $ + + = ; # # # # # # + + + $ # # < + + + + > # # # # < + + < # # [ ^ ^ [ < + + - # # # # # # , + ",
"> # '+^ }+|+^ + + + $ # # # # # ; + + - ; # # # # # # + + + $ # # - + + + # # # # # # - + + + # # # # # # < + + < # # # # # # $ ",
"+ - ; # # # # # : + + > # # # # # # + + + @ # # # # # # + + + , # # > + + + , # # # # # ' + + + @ # # # # # ) + + + # # # # # # ",
"+ + + $ # # # # # > + + > # # # # # # + + + $ # # # # # # - + + ' # # @ + + + = # # # # # $ + + + , # # # # # ' + + + # # # # # "};
