/* XPM */
static char * player_xpm[] = {
"64 64 202 2",
"  	c #5A4634",
". 	c #5C493A",
"+ 	c #59422E",
"@ 	c #594535",
"# 	c #594636",
"$ 	c #594534",
"% 	c #473226",
"& 	c #463125",
"* 	c #58473A",
"= 	c #58483D",
"- 	c #544338",
"; 	c #4F3B2C",
"> 	c #4D382A",
", 	c #4C3728",
"' 	c #4B3627",
") 	c #4B3628",
"! 	c #4C382A",
"~ 	c #4D392C",
"{ 	c #4F3C2E",
"] 	c #523F30",
"^ 	c #564333",
"/ 	c #574435",
"( 	c #594432",
"_ 	c #594533",
": 	c #594433",
"< 	c #594431",
"[ 	c #594330",
"} 	c #5C4A3B",
"| 	c #5E4F43",
"1 	c #483326",
"2 	c #493428",
"3 	c #463226",
"4 	c #594635",
"5 	c #5C4C3F",
"6 	c #5E4F44",
"7 	c #59422F",
"8 	c #5A493B",
"9 	c #5C4A3C",
"0 	c #594331",
"a 	c #483327",
"b 	c #473326",
"c 	c #493528",
"d 	c #4A3628",
"e 	c #4A3527",
"f 	c #523D2C",
"g 	c #59432F",
"h 	c #574434",
"i 	c #514135",
"j 	c #4F3E33",
"k 	c #463126",
"l 	c #463225",
"m 	c #504033",
"n 	c #504134",
"o 	c #554335",
"p 	c #5A4635",
"q 	c #5D4D41",
"r 	c #4F4033",
"s 	c #533D2B",
"t 	c #5D4F43",
"u 	c #5C4F44",
"v 	c #473227",
"w 	c #46392F",
"x 	c #463A31",
"y 	c #5A483A",
"z 	c #5E5044",
"A 	c #5D4D40",
"B 	c #5E5045",
"C 	c #504032",
"D 	c #463B32",
"E 	c #543E2C",
"F 	c #503F32",
"G 	c #5E5146",
"H 	c #503E2E",
"I 	c #564231",
"J 	c #55402E",
"K 	c #4F3D2F",
"L 	c #544132",
"M 	c #574333",
"N 	c #57412D",
"O 	c #4E3A2B",
"P 	c #483427",
"Q 	c #563F2C",
"R 	c #473225",
"S 	c #493427",
"T 	c #4E3D2F",
"U 	c #4A3B2F",
"V 	c #56412E",
"W 	c #4B392D",
"X 	c #56402E",
"Y 	c #4C3B2F",
"Z 	c #4E3C31",
"` 	c #564334",
" .	c #503A2A",
"..	c #4D3828",
"+.	c #4F392A",
"@.	c #493326",
"#.	c #58483B",
"$.	c #54402E",
"%.	c #523C2B",
"&.	c #4F3929",
"*.	c #4F3A2A",
"=.	c #503C2E",
"-.	c #513E2F",
";.	c #503B2B",
">.	c #4C3729",
",.	c #594332",
"'.	c #534030",
").	c #574437",
"!.	c #5A4738",
"~.	c #4A3528",
"{.	c #523F2E",
"].	c #57412E",
"^.	c #5D5045",
"/.	c #493426",
"(.	c #4B3629",
"_.	c #5E5046",
":.	c #5B4A3C",
"<.	c #473327",
"[.	c #57473A",
"}.	c #513F33",
"|.	c #514033",
"1.	c #615B58",
"2.	c #463227",
"3.	c #4B3A2D",
"4.	c #5C4B3E",
"5.	c #4E3829",
"6.	c #533D2D",
"7.	c #533E2E",
"8.	c #533F31",
"9.	c #523D2D",
"0.	c #523E2F",
"a.	c #534031",
"b.	c #574334",
"c.	c #757575",
"d.	c #463A30",
"e.	c #504133",
"f.	c #554130",
"g.	c #5A4432",
"h.	c #5A4737",
"i.	c #5B4838",
"j.	c #5B493B",
"k.	c #554233",
"l.	c #554131",
"m.	c #4C392C",
"n.	c #645951",
"o.	c #94685C",
"p.	c #9E6250",
"q.	c #5C4B3C",
"r.	c #543F2E",
"s.	c #463A32",
"t.	c #4A372B",
"u.	c #A1604C",
"v.	c #B74F02",
"w.	c #AD5836",
"x.	c #655A53",
"y.	c #5A4636",
"z.	c #5B4B3D",
"A.	c #563F2D",
"B.	c #4E392C",
"C.	c #7E7270",
"D.	c #B55115",
"E.	c #B74F03",
"F.	c #B74F05",
"G.	c #5A4533",
"H.	c #4A3629",
"I.	c #AA5A3B",
"J.	c #655B55",
"K.	c #655C55",
"L.	c #5A4331",
"M.	c #463328",
"N.	c #5C5754",
"O.	c #463429",
"P.	c #574231",
"Q.	c #46362C",
"R.	c #46352A",
"S.	c #4C392D",
"T.	c #513F32",
"U.	c #544236",
"V.	c #554132",
"W.	c #4B372A",
"X.	c #523F2F",
"Y.	c #503D2E",
"Z.	c #5A4739",
"`.	c #4F3B2D",
" +	c #5B4B3C",
".+	c #4A362A",
"++	c #56473C",
"@+	c #524237",
"#+	c #4F3D32",
"$+	c #463529",
"%+	c #4B3729",
"&+	c #5C4B3D",
"*+	c #493529",
"=+	c #483428",
"-+	c #4E3A2C",
";+	c #574232",
">+	c #5A4839",
",+	c #5D4C3F",
"'+	c #5D4B3E",
")+	c #5D4E43",
"!+	c #5D4E42",
"~+	c #564332",
"  . .   + @ # # # # # # $ + + + @ % & & & % * = - ; > , ' ) ! ~ { ] ^ / ( + + + _ # % & & & % : + + + $ # # # # # < + + [ @ # # ",
"} | | . + + $ # # # # # # @ + + + % & & & & % & & & & & & & & & & & & % % % % % 1 2 & & & & 3 # : + + + : # # # # # ( + + [ 4 # ",
"5 6 | . + + + < # # # # # # @ + + % & & & & & & & & & & & & & & & & & & & & & & & & & & & & 3 # # : + + + : # # # # # ( + + 7 $ ",
"8 5 9   + + + + [ # # # # # # # + % & & & & & & & & & & & & & & & & & & & & & & & & & & & & 3 # # # $ + + + ( # # # # # : + + + ",
"0 4 # ( + + + + + 7 # # # # # # # 1 & & & & & & & & & & & & & & & & & & & & & & & & & & & & 3 # # # # @ 7 + + < # # # # # : + + ",
"+ [ 4 # : + + + + + + # # # # # # a & & & & b a a 2 c d ' ' e c 1 % % % % % & & & & & & & & 3 # # # # # @ [ + + 0 4 # # # # : + ",
"+ + [ @ # $ + + + + + + @ # # # # a & & & & f # _ 7 ( # @ + + + $ g + + 0 h ^ ] i j k & & & l m n o # # # 4 p | | q @ # # # # $ ",
"+ + + 7 @ # $ + + + + + + @ o n r % & & & & s 7 + + + ( # @ + + + 4 0 + + 7 $ # t u v & & & l w x n # # # # y z | A 7 @ # # # # ",
"+ + + | | B # # + + + + + + C D x l & & & & E + + + + + [ @ # + + + $ ( + + + $ # ^ & & & & 3 w w F # # # # y G B A + + $ # # # ",
"+ + + | | | 0 @ @ + + + + + H x x & & & & l I + + + + + + + $ # + + + @ ( + + + ( ] & & & & b H H J ( # # # # # # : + + + : # # ",
"[ + + | | | + $ # # + + + + J H K & & & & % L M N + + + + + + : # + + + _ $ N N N O & & & & P @ 7 + + < # # # # # # : + + + _ # ",
"# [ + + + + + + # # # 7 + + + + Q R & & & & & & % R R R R % % % 1 a 1 1 1 S P b 1 % & & & & c # @ [ + + 0 4 # # # # # $ + + + : ",
": # < + + T U U V @ # # 7 + + + Q & & & & & & & & & & & & & & & & & & & & & & & & & & & & & W G G 4 0 + + [ @ # # # # # $ + + + ",
"+ ( # : + U w w X + _ # G 6 | + E & & & & & & & & & & & & & & & & & & & & & & & & & & & & & Y G G # # ( + + + $ # # # # # $ + + ",
"+ + ( # $ U w w X + + < G G 6 + s & & & & & & & & & & & & & & & & & & & & & & & & & & & & & Z G G # # # ( + + + _ # # # # # @ [ ",
"+ + + 0 4 ` X X + + + + | G G 0  .& & & & & R R % % % v v l & & & & & & & & & & & % & & & & ..( # # # # # : + + + : # # # # # 4 ",
"+ + + + ( # @ + + + + + + + @ # +.& & & & @.+ + + @ 5 G u #.$.s %.%.%.%. .&.*.=.-.a & & & & &.+ 0 4 # # # # $ + + + ( # # # # # ",
"+ + + + + 0 # # + + + + + + + $ ~ & & & & S + + + + : # # # # : + + + + 0 + + + $ P & & & & ;.+ + [ @ # # # # $ 7 + + 0 # # # # ",
"+ + + 7 + + 7 # # 7 + + + + + + >.& & & & e + + + + + < # # # # $ + + + + ,.+ + + b & & & & '.< + + + $ # # # # $ + + + [ 4 # # ",
"+ + + + [ + + + # # [ + + + + + ' & & & & ' + + + + + + [ # # # # $ + + + + ( + + % & & & & L # : + + + : # # # # 4 + + + g 4 # ",
"$ + + + + [ + + + $ # 0 + + + + e & & & & e + + + + + + + + # # # # ( + + + + ,.7 % & & & & ).y !.: + + + < # # # # # + + + + $ ",
"# @ + + + + J H H J < # < + + + e & & & & ~.+ + + {.H H ].+ + # # # ^.G G y + + 0 % & & & % u G 5 # $ + + + ( # # # # # + + + + ",
"# # # + + + H w w H + [ # ( + + /.& & & & (.# + + U w w X + + + # # _.G G :.@ + {.3 & & & % B G 5 # # [ + + + 0 4 # # # # 7 + + ",
"# # # # 7 + H w w H + + + # _ + 1 & & & & R a b % 3 3 3 % 1 1 1 % % <.<.v % % b 3 & & & & % [.}.|.] # # < + + + + $ # # # # g + ",
"( # # # # 7 J H H J + + + + $ $ 1 & & & & & & & & & & & & & & & & & & & & & & & & & & & & & & & & & & & c O  .+ + + : # # # # [ ",
"+ 0 4 # # # < + + + + + + + + < a & & & & & & & & & & & & & & & & & & & & & & & & & & & & & & & & & & & & & & + + + + ( # # # # ",
"+ + + @ # # # : +   . .   + + + % & & & & & & & & & & & & & & & & & & & & & & & & & & & & & & & & & & & & & & _ + + + + ( # # # ",
"+ + + + + + # # $ . | | . 7 + + % & & & & & & & & & & & & & & & & & & R R % % b a & & & & & & & & 1.1.& & 2.3.# @ + + + + [ @ # ",
"7 + + + + + + @ # 4.| | . + 7 + 1 & & & & 5.s s s 6.7.7.8.9.%.0.a.L ^ b.+ + [ # ] & & & & % e e ..c.c.H w d.e.# # @ + + + + + $ ",
"# 7 + + + + + + [ 8 5 .   + + + 1 & & & & f + + + . | | . # # # # # # # # + + + ;.& & & & P [ + + c.c.f.H H J $ # # # + + + + + ",
"# # ( + + + + + + + # # + + + + 1 & & & & %.< + + . | 6 . + @ # # # # # # # + + &.& & & & 2 # 0 + c.c.+ [ + + g.h.y # # 7 + + + ",
"# # # _ + + + + + + + # # 7 + + 1 & & & & %.$ : + i.A A i.+ + $ # # # # # # # + ..& & & & c # # : c.c.+ + 7 + A | B y # # [ + + ",
"( # # # # + + + + + + + $ # [ + 1 & & & & %.: # $ + + + + 7 + + : # # # # # # # , & & & & d j.c.c.c.c.c.c.+ 7 A | | p 4 # # [ + ",
"+ 7 4 # # # + + + + + + + 0 # ( % & & & & s + 7 # $ + + + + k.H H l.# # # # # # m.& & & & ' n.c.c.o.p.c.c.+ + q.q A g.7 $ # # < ",
"+ + + $ # # # + + + + + + + + # % & & & & r.+ + + # ( + ( # n s.w H + # # # # # t.& & & & e c.c.u.v.v.w.c.x.+ + + ( + + + ( # # ",
"+ + + + y.5 5 z.+ + + {.U U {.+ % & & & & s A.A.N + # # # # n D D H + + # # 0.B.a & & & & e c.C.D.E.v.F.c.x.+ + + + ( + + + @ # ",
"+ + + + G.B G t # + + H w w H N R & & & & l & & % % 1 P 2 H.c <.<.b % R % % R & & & & & & e c.o.I.v.E.v.c.J.+ + + + + 0 + 0 @ # ",
"( + + + G.| 6 t # # [ H w w H Q & & & & & & & & & & & & & & & & & & & & & & & & & & & & & ~.x.c.c.v.w.c.c.K.# + + + + + < # # # ",
"# $ + + L.. . i.$ # # M X X ].E & & & & & & & & & & & & & & & & & & & & & & & & & & & & & M.N.c.c.c.c.c.c.# # # + + + + + [ # # ",
"# # $ + + + + + + $ # # : + + s & & & & & & & & & & & & & & & & & & & & & & & & & & & & & O.D n + + + + + # # # # + + [ + + 7 # ",
"# # # 4 + + + + + + ( # # 4 + %.& & & & R e a % & & & & & & & & & & % % & & & & & & & & & O.D n # + + + + + # # # # # # : + + + ",
"# # # # # + + + + + + 0 4 # $ %.& & & & 1 + + P.Q.R.O.c 2 H.e S.T.U.V./ ^ L L L e & & & & W.# # # # + + + + + # # # # # # $ + + ",
"# # # # # # + + + + + + + @ # X.& & & & a # + + w D D # # # # 6 | | + @ # # # # W.& & & & ' $ # # # # 7 + + + + @ # # # # # @ + ",
"# # # # # # # + + + + + + + _ ] & & & & a # # + + + # # # # # G B | + + @ # # # W.& & & & ' + ( 5 5 5 # ( + + + + : # # # # # # ",
": # # # # # # # + + + + + + g Y.& & & & 1 @ # # + + + ( # # # y y Z.+ + + _ # # W.& & & & ' + + 6 G G # # ( + + + + 0 # # # # # ",
"+ ( # # # # # # # 0 + + + $ # `.& & & & @.+ @ # # ( + + [ # # # # # # + + + < # W.& & & & ' + + | | G # # # + + + + + 7 # # # # ",
"+ + 0 4 # # # # # # ( + + < # ~ & & & & S + + $ # # + + + + # # # # # # + + + [ W.& & & & (.+ + . . . # # # # # @ + + + + # # # ",
"4 + + [ 4 # # # # # # $ + + 0 ! & & & & H.+ + + $ # _ + + + + # # # # # # + + + ) & & & & W.$ + + + + + _ # # # # # + + + + @ # ",
"# # + + + $ # # # # # # $ + + ) & & & & W.# + + + $ # @ + + + w s.D # # # # [ + ' & & & & W.# @ + + + + + 0 # # 8 5 5 p + + + _ ",
"# # # + + + $ # # # !.5 5  ++ e & & & & H.t t q.+ + _ # # + + w w x # # # # # ( ' & & & & W.# # o H H J + + 7 # 5 G G 5 7 + + + ",
"# # # # + + + _ # # y G G t # /.& & & & .+++@+#+>.' , > `.Y.%.R.$+$+&.`.Y.] Y.-.c & & & & W.# # n D D F + + + + 5 G G 5 # 7 + + ",
"# # # # # 0 + + ( # y G G t # c & & & & & & & & & & & & & & & & & & & & & & & & & & & & & %+# # n D D n $ + + +   &+5 8 # # g + ",
"# # # # # # ( + + < !.5 5 z.# c & & & & & & & & & & & & & & & & & & & & & & & & & & & & & ' + # o n n o # @ + + + + 0 # # # # 0 ",
"0 4 # # # # # $ + + 0 4 # # # c & & & & & & & & & & & & & & & & & & & & & & & & & & & & & ' + [ # # # # # # @ + + + + 7 # # # # ",
"+ + @ # # # # # 4 + + + @ # # c & & & & & & & & & & & & & & & & & & & & & & & & & & & & & ) + + 7 # # # # # # # + + + + + # # # ",
"+ + + $ # # # # # D w w + $ # c & & & & & R 1 S H.%+e S @.1 1 1 S S 2 *+*+=+=+S % & & & & W.< + + + # # # # # # # 7 + + + + $ # ",
"# + + + _ # # # # D D w + + $ 2 & & & & -+;+N + ( # # + + + 7 + + + @ # # 0 + + ' & & & & W.# : + + + @ # # # # # # [ + + + + < ",
"# # 0 + + ( # # # D D D + + + a & & & & Y.# 4 + + [ 4 # [ + + + + + + @ # # ( + ' & & & & W.# # >+. .   @ # # # # # # 0 + + + + ",
"# # !.9 ,+'+9 4 # # # # # [ + 1 & & & & ] # # 4 + + [ 4 # : + + + + + + $ # # @ ' & & & & W.# # 5 _.| . + _ # # # # # # < + + + ",
"# # y G B | | + @ # # # # # : % & & & & a.# # # # + + + @ # @ + + + + + + + @ # %+& & & & W.# # 5 G G . + + ( # # # # # # ( + + ",
"# # y G G G | + + $ # # # # # % & & & & L # # # # # + + + $ # # 7 + + + + ( # # W.& & & & ) # # 8 5 5 8 7 + + [ # # # # # # _ + ",
"( # !.5 )+!+5 + + + $ # # # # % & & & & ~+# # # # # # + + + $ # # [ + + + # # # W.& & & & ' + # # # # # # 7 + + 7 # # # # # # $ ",
"+ [ 4 # # # # # g + + ( # # / % & & & R N @ # # # # # # + + + _ # # ( + + + _ # W.& & & & ' + + @ # # # # # < + + + # # # # # # ",
"+ + + $ # # # # # ( + + ( # ^ & & & & % + + $ # # # # # # [ + + : # # @ + + + 0 W.& & & & %++ + + _ # # # # # : + + + # # # # # "};
