/* XPM */
static char * player_xpm[] = {
"64 64 547 2",
"  	c #5A4634",
". 	c #5C493A",
"+ 	c #59422E",
"@ 	c #594535",
"# 	c #594636",
"$ 	c #594534",
"% 	c #5D4D40",
"& 	c #5E4F43",
"* 	c #5A4635",
"= 	c #594331",
"- 	c #57402D",
"; 	c #402E1F",
"> 	c #37281B",
", 	c #2B2017",
"' 	c #2D2319",
") 	c #281E16",
"! 	c #33271D",
"~ 	c #3A2B1F",
"{ 	c #3A2A1C",
"] 	c #463627",
"^ 	c #513F30",
"/ 	c #554233",
"( 	c #594433",
"_ 	c #594431",
": 	c #594330",
"< 	c #5C4A3B",
"[ 	c #5D4F43",
"} 	c #5E4F44",
"| 	c #5A4533",
"1 	c #4D3A29",
"2 	c #170F08",
"3 	c #000000",
"4 	c #100905",
"5 	c #100A06",
"6 	c #1D150F",
"7 	c #2C2118",
"8 	c #3F3125",
"9 	c #594432",
"0 	c #594635",
"a 	c #5C4C3F",
"b 	c #5B4B3D",
"c 	c #5C4A3C",
"d 	c #5A4331",
"e 	c #4D3A28",
"f 	c #231000",
"g 	c #554131",
"h 	c #59422F",
"i 	c #5A493B",
"j 	c #3F2F21",
"k 	c #3F2E1F",
"l 	c #3E2D1E",
"m 	c #332519",
"n 	c #53310C",
"o 	c #522D00",
"p 	c #543109",
"q 	c #543007",
"r 	c #532F03",
"s 	c #532E02",
"t 	c #532E01",
"u 	c #542F05",
"v 	c #532F04",
"w 	c #5C3C1E",
"x 	c #5B3B1D",
"y 	c #583615",
"z 	c #543414",
"A 	c #463423",
"B 	c #4F361F",
"C 	c #3D2F23",
"D 	c #2B2118",
"E 	c #453629",
"F 	c #1A130C",
"G 	c #443627",
"H 	c #55310B",
"I 	c #553108",
"J 	c #532E03",
"K 	c #55320B",
"L 	c #56330D",
"M 	c #56340F",
"N 	c #5B3A1A",
"O 	c #543108",
"P 	c #604124",
"Q 	c #654A32",
"R 	c #1D150E",
"S 	c #3C2E23",
"T 	c #5A3D22",
"U 	c #6A4E33",
"V 	c #998265",
"W 	c #8F775B",
"X 	c #7C6348",
"Y 	c #563410",
"Z 	c #4C2C0B",
"` 	c #372A20",
" .	c #554230",
"..	c #1D140C",
"+.	c #998264",
"@.	c #988264",
"#.	c #968063",
"$.	c #978063",
"%.	c #988164",
"&.	c #957F62",
"*.	c #64462A",
"=.	c #472C10",
"-.	c #2F241B",
";.	c #5D4D41",
">.	c #554335",
",.	c #504134",
"'.	c #4A3625",
").	c #867258",
"!.	c #8B765A",
"~.	c #31291E",
"{.	c #3E3326",
"].	c #15100A",
"^.	c #3F3527",
"/.	c #2C231B",
"(.	c #5A483A",
"_.	c #5E5044",
":.	c #5E5045",
"<.	c #504032",
"[.	c #463B32",
"}.	c #312316",
"|.	c #826E54",
"1.	c #080503",
"2.	c #120E08",
"3.	c #352C20",
"4.	c #110C07",
"5.	c #78654E",
"6.	c #2C221A",
"7.	c #5E5146",
"8.	c #503E2E",
"9.	c #463A31",
"0.	c #594533",
"a.	c #553F2B",
"b.	c #23180F",
"c.	c #7B674F",
"d.	c #7D6A52",
"e.	c #75624B",
"f.	c #37281C",
"g.	c #55402E",
"h.	c #503E30",
"i.	c #513E2F",
"j.	c #0F0804",
"k.	c #180F08",
"l.	c #867157",
"m.	c #8C775C",
"n.	c #463629",
"o.	c #2D2015",
"p.	c #8F785C",
"q.	c #89745A",
"r.	c #8B765B",
"s.	c #2C2015",
"t.	c #4E3D2F",
"u.	c #4A3B2F",
"v.	c #56412E",
"w.	c #4A392C",
"x.	c #3C2B1D",
"y.	c #8C755A",
"z.	c #1D170F",
"A.	c #8E795E",
"B.	c #2F2419",
"C.	c #46392F",
"D.	c #56402E",
"E.	c #4D3D2E",
"F.	c #76624A",
"G.	c #8C775B",
"H.	c #927D60",
"I.	c #957E61",
"J.	c #957E62",
"K.	c #968062",
"L.	c #897559",
"M.	c #947E61",
"N.	c #937D60",
"O.	c #937D61",
"P.	c #917B5F",
"Q.	c #887358",
"R.	c #71614D",
"S.	c #2F2721",
"T.	c #1C1713",
"U.	c #362A1F",
"V.	c #433931",
"W.	c #594D42",
"X.	c #564334",
"Y.	c #554232",
"Z.	c #4C3B2D",
"`.	c #4C3E33",
" +	c #3A312A",
".+	c #291D12",
"++	c #4D3B2B",
"@+	c #534132",
"#+	c #4D3927",
"$+	c #150E09",
"%+	c #302823",
"&+	c #433A31",
"*+	c #3C3128",
"=+	c #3A2B1E",
"-+	c #36271A",
";+	c #2B1E13",
">+	c #24190F",
",+	c #21170E",
"'+	c #241910",
")+	c #281C12",
"!+	c #281D13",
"~+	c #17100A",
"{+	c #130D08",
"]+	c #18110B",
"^+	c #1C140D",
"/+	c #19110B",
"(+	c #2E2115",
"_+	c #1D140B",
":+	c #150D08",
"<+	c #271D14",
"[+	c #271D15",
"}+	c #332518",
"|+	c #291E15",
"1+	c #30251B",
"2+	c #4D3B2A",
"3+	c #35271B",
"4+	c #372207",
"5+	c #372308",
"6+	c #382308",
"7+	c #372307",
"8+	c #382309",
"9+	c #39240B",
"0+	c #3D2913",
"a+	c #402C18",
"b+	c #473321",
"c+	c #493625",
"d+	c #120B06",
"e+	c #291F16",
"f+	c #4D3828",
"g+	c #4D3827",
"h+	c #3C2C1D",
"i+	c #403125",
"j+	c #453322",
"k+	c #21160D",
"l+	c #3B291A",
"m+	c #3A260F",
"n+	c #3C2812",
"o+	c #0E0804",
"p+	c #37281A",
"q+	c #271B11",
"r+	c #1A1109",
"s+	c #110B07",
"t+	c #100A05",
"u+	c #080502",
"v+	c #402E20",
"w+	c #453526",
"x+	c #302216",
"y+	c #362411",
"z+	c #3A250D",
"A+	c #3A2610",
"B+	c #1C120A",
"C+	c #59432F",
"D+	c #181009",
"E+	c #060302",
"F+	c #050301",
"G+	c #1F150C",
"H+	c #0A0603",
"I+	c #35220C",
"J+	c #3E2912",
"K+	c #39291B",
"L+	c #0D0704",
"M+	c #251A10",
"N+	c #040201",
"O+	c #484544",
"P+	c #737271",
"Q+	c #818181",
"R+	c #7B7A79",
"S+	c #615F5D",
"T+	c #090503",
"U+	c #1F160F",
"V+	c #48331E",
"W+	c #1B130C",
"X+	c #4E4C4B",
"Y+	c #808080",
"Z+	c #959595",
"`+	c #979797",
" @	c #858585",
".@	c #2C1F14",
"+@	c #433428",
"@@	c #1F1710",
"#@	c #8B8B8B",
"$@	c #929292",
"%@	c #969696",
"&@	c #2F2115",
"*@	c #342416",
"=@	c #352412",
"-@	c #322417",
";@	c #3C2D20",
">@	c #1B140D",
",@	c #212121",
"'@	c #656464",
")@	c #7E7E7E",
"!@	c #878787",
"~@	c #898989",
"{@	c #7D7D7D",
"]@	c #757575",
"^@	c #2C2117",
"/@	c #4A392A",
"(@	c #281C11",
"_@	c #392716",
":@	c #39250E",
"<@	c #392510",
"[@	c #3B2813",
"}@	c #37230A",
"|@	c #3A3634",
"1@	c #8A8A8A",
"2@	c #939393",
"3@	c #747474",
"4@	c #5B5A5A",
"5@	c #464443",
"6@	c #433121",
"7@	c #372513",
"8@	c #433122",
"9@	c #1A110A",
"0@	c #888888",
"a@	c #3A2C1F",
"b@	c #0C0805",
"c@	c #34271C",
"d@	c #2E1E0E",
"e@	c #3A2D21",
"f@	c #392614",
"g@	c #372309",
"h@	c #2C1D0C",
"i@	c #2E2318",
"j@	c #32251A",
"k@	c #949494",
"l@	c #838383",
"m@	c #595553",
"n@	c #19120D",
"o@	c #100B08",
"p@	c #3A2C21",
"q@	c #2B1D0F",
"r@	c #3C270F",
"s@	c #4A3520",
"t@	c #302316",
"u@	c #342310",
"v@	c #36230A",
"w@	c #251708",
"x@	c #27201A",
"y@	c #313131",
"z@	c #392A1E",
"A@	c #23180B",
"B@	c #170C00",
"C@	c #251B11",
"D@	c #130C06",
"E@	c #3F2E20",
"F@	c #2F2216",
"G@	c #2A1D13",
"H@	c #8D765B",
"I@	c #544533",
"J@	c #372208",
"K@	c #362208",
"L@	c #1C1106",
"M@	c #39250B",
"N@	c #3D2914",
"O@	c #1F1813",
"P@	c #0D0906",
"Q@	c #626262",
"R@	c #787776",
"S@	c #180E03",
"T@	c #1D1000",
"U@	c #201404",
"V@	c #1F1305",
"W@	c #100700",
"X@	c #342518",
"Y@	c #3C2D1F",
"Z@	c #74624C",
"`@	c #261604",
" #	c #7B6850",
".#	c #7D674E",
"+#	c #6A543D",
"@#	c #513E2D",
"##	c #1D140D",
"$#	c #1F150D",
"%#	c #554231",
"&#	c #848484",
"*#	c #0A0503",
"=#	c #1F1202",
"-#	c #180C00",
";#	c #191109",
">#	c #080402",
",#	c #79654D",
"'#	c #302821",
")#	c #311E07",
"!#	c #705F48",
"~#	c #493D2D",
"{#	c #5A4432",
"]#	c #5A4737",
"^#	c #828282",
"/#	c #6C6C6C",
"(#	c #0A0400",
"_#	c #1B1002",
":#	c #1B0E00",
"<#	c #503B29",
"[#	c #261E18",
"}#	c #342007",
"|#	c #362209",
"1#	c #483C2D",
"2#	c #717171",
"3#	c #8E8E8E",
"4#	c #838382",
"5#	c #1A1A1A",
"6#	c #120903",
"7#	c #201303",
"8#	c #0F0700",
"9#	c #020101",
"0#	c #1B120A",
"a#	c #504231",
"b#	c #967F62",
"c#	c #352108",
"d#	c #73614A",
"e#	c #140E08",
"f#	c #1F140C",
"g#	c #130900",
"h#	c #1F1203",
"i#	c #1C0F00",
"j#	c #150A00",
"k#	c #040200",
"l#	c #2A1F15",
"m#	c #36220A",
"n#	c #090604",
"o#	c #211811",
"p#	c #241A13",
"q#	c #3D2C1D",
"r#	c #5C4B3C",
"s#	c #140A00",
"t#	c #1C1000",
"u#	c #160B00",
"v#	c #150B00",
"w#	c #1B1004",
"x#	c #170E08",
"y#	c #030201",
"z#	c #423021",
"A#	c #41352C",
"B#	c #180D00",
"C#	c #1B0F02",
"D#	c #140A01",
"E#	c #1B0F00",
"F#	c #040403",
"G#	c #39291A",
"H#	c #3A2D22",
"I#	c #3B3027",
"J#	c #3B3127",
"K#	c #392919",
"L#	c #1D1510",
"M#	c #4D3926",
"N#	c #513B29",
"O#	c #2F2218",
"P#	c #251C14",
"Q#	c #070503",
"R#	c #0F0904",
"S#	c #473627",
"T#	c #594C42",
"U#	c #211810",
"V#	c #190D00",
"W#	c #191816",
"X#	c #403D39",
"Y#	c #3F3C38",
"Z#	c #3D3833",
"`#	c #211812",
" $	c #3B2E23",
".$	c #392C21",
"+$	c #3C2D22",
"@$	c #453527",
"#$	c #2A211B",
"$$	c #160F09",
"%$	c #0D0500",
"&$	c #1A0E00",
"*$	c #5B4838",
"=$	c #574333",
"-$	c #3A2B1D",
";$	c #231911",
">$	c #1C1611",
",$	c #1D1101",
"'$	c #2C2016",
")$	c #3E3933",
"!$	c #403C39",
"~$	c #4E4137",
"{$	c #43382F",
"]$	c #332921",
"^$	c #18100A",
"/$	c #2A1904",
"($	c #392D22",
"_$	c #403124",
":$	c #31251B",
"<$	c #2E2620",
"[$	c #221B16",
"}$	c #2D1B05",
"|$	c #150D07",
"1$	c #2D251F",
"2$	c #1F1102",
"3$	c #150A01",
"4$	c #362207",
"5$	c #7E6A51",
"6$	c #544535",
"7$	c #4E3E32",
"8$	c #291907",
"9$	c #736047",
"0$	c #6B5841",
"a$	c #463526",
"b$	c #524332",
"c$	c #8D775C",
"d$	c #60513D",
"e$	c #1D150D",
"f$	c #221912",
"g$	c #2D2219",
"h$	c #120C08",
"i$	c #60503D",
"j$	c #241C16",
"k$	c #261C14",
"l$	c #5A4738",
"m$	c #5B4B3C",
"n$	c #5A4839",
"o$	c #241A12",
"p$	c #1D1611",
"q$	c #241B14",
"r$	c #0E0805",
"s$	c #8A755A",
"t$	c #050302",
"u$	c #261A10",
"v$	c #917C5F",
"w$	c #0C0704",
"x$	c #2B1E14",
"y$	c #503F32",
"z$	c #0F0906",
"A$	c #060402",
"B$	c #281B11",
"C$	c #0B0704",
"D$	c #23180E",
"E$	c #5C4B3D",
"F$	c #35281D",
"G$	c #2F231A",
"H$	c #261B12",
"I$	c #413328",
"J$	c #332A23",
"K$	c #2B231D",
"L$	c #2A2019",
"M$	c #1A130D",
"N$	c #241B13",
"O$	c #3B2F22",
"P$	c #503F31",
"Q$	c #463A32",
"R$	c #5D4C3F",
"S$	c #5D4B3E",
"T$	c #5E5046",
"U$	c #5D4E43",
"V$	c #5D4E42",
"  . .   + @ # # # # # # $ + + + @ # # # # # % & & * = - ; > , ' ) ) ' ! ~ { { ; ] ^ / # # # # ( + + + $ # # # # # _ + + : @ # # ",
"< & & . + + $ # # # # # # @ + + + @ # # # # [ } & | : 1 2 3 3 3 3 3 3 3 3 3 3 3 4 5 6 6 6 7 8 # ( + + + ( # # # # # 9 + + : 0 # ",
"a } & . + + + _ # # # # # # @ + + + $ # # # b a c d + e 3 3 3 4 5 5 5 3 3 3 3 f 3 f f 3 3 3 8 / / g + + + ( # # # # # 9 + + h $ ",
"i a c   + + + + : # # # # # # # + + + ( # # # # / j k l m n o o p q r s t u s v w x y o z A B C D E $ + + + 9 # # # # # ( + + + ",
"= 0 # 9 + + + + + h # # # # # # # h + + _ # # # / F 3 G H t o I J I v q K o L L L M N O P o Q R 3 S # @ h + + _ # # # # # ( + + ",
"+ : 0 # ( + + + + + + # # # # # # # : + + : # # / 6 3 T o t U V V V V V W W W V V V V V V X Y Z 3 ` # # @ : + + = 0 # # # # ( + ",
"+ + : @ # $ + + + + + + @ # # # # # # = + + : #  ...3 o q W +.V @.#.$.%.%.+.V V V @.#.&.@.V *.=.3 -.# # # 0 * & & ;.@ # # # # $ ",
"+ + + h @ # $ + + + + + + @ >.,.,.>.# # _ + + h '.4 3 ).V %.!.~.3 ~.V V V V V V {.].^.@.V V o ~.3 /.# # # # (._.& % h @ # # # # ",
"+ + + & & :.# # + + + + + + <.[.[.,.# # # 9 + + }.3 3 |.V V V 3 1.2.V V V V V V 3.4.^.V V V 5.3 3 6.# # # # (.7.:.% + + $ # # # ",
"+ + + & & & = @ @ + + + + + 8.9.[.,.# # # # 0.a.b.3 3 c.V V V V d.d.V V V V V V V V V V V @.e.3 3 f.9 # # # # # # ( + + + ( # # ",
": + + & & & + $ # # + + + + g.8.h.>.$ $ # # # i.j.3 k.l.V V V V V V V V V V V V V V V V V V m.~.3 { + _ # # # # # # ( + + + 0.# ",
"# : + + + + + + # # # h + + + + + h + + # # # n.5 3 o.p.V V V V m.q.r.r.r.V V V V V V V V V #.~.3 s.+ + = 0 # # # # # $ + + + ( ",
"( # _ + + t.u.u.v.@ # # h + + + + + + + + # # w.3 3 x.y.V V V V 3 3 3 z.z.3 3 3 V V V V V V A.~.3 B.= + + : @ # # # # # $ + + + ",
"+ 9 # ( + u.C.C.D.+ 0.# 7.} & + + + + + + + # E.8 8 E.F.G.H.I.I.&.J.K.L.L.#.M.N.O.O.O.O.P.Q.R.S.T.U.# 9 + + + $ # # # # # $ + + ",
"+ + 9 # $ u.C.C.D.+ + _ 7.7.} + + + + + + + + # # # a V.3 3 3 3 3 3 3 3 3 3 3 3 3 3 3 3 3 3 S.W.W./ # # 9 + + + 0.# # # # # @ : ",
"+ + + = 0 X.D.D.+ + + + & 7.7.= + + + + + + + + Y.Z.`. +3 3 3 3 3 3 3 3 3 3 3 3 3 3 3 3 3 3 .+++E.@+# # # ( + + + ( # # # # # 0 ",
"+ + + + 9 # @ + + + + + + + @ # = + + + + + #+x..+$+3 %+&+*+=+-+;+>+,+'+)+)+!+F ~+{+]+^+/+)+(+_+:+<+[+! E.# $ + + + 9 # # # # # ",
"+ + + + + = # # + + + + + #+}+|+1+2++ + + x.b.3 3 3 3 3+4+4+5+5+5+6+6+6+6+7+7+4+8+9+0+0+a+b+c+_+d+3 3 3 e+S E.$ h + + = # # # # ",
"+ + + h + + h / ^ f+g+h+}.b.3 3 3 i+( + j+k+3 3 3 >+l+m+4+4+4+4+4+4+4+4+4+4+4+4+4+4+4+4+4+4+4+n+-+o+3 3 3 3 8 # $ + + + : 0 # # ",
"+ + + + : p+q+r+s+5 t+u+3 3 3 3 3 v+# w+x+3 3 2 y+z+4+4+4+4+4+4+4+4+4+4+4+4+4+4+4+4+4+4+4+4+4+4+4+A+h+B+3 3 1+# # 0 + + + C+0 # ",
"$ + + + j+D+3 3 3 3 3 3 3 E+F+3 G+'.+ 7 3 H+I+4+4+4+4+4+4+4+4+4+4+4+4+4+4+4+4+4+4+4+4+4+4+4+4+4+4+4+J+K+L+3 e+/ # # # + + + + $ ",
"# @ + '.M+3 3 N+O+P+Q+R+S+T+3 G+j++ a._+3 U+4+4+4+4+4+4+4+4+4+4+4+4+4+4+4+4+4+4+4+4+4+4+4+4+4+4+4+4+4+V+b.3 H+i+# # # # + + + + ",
"# # S G+3 3 W+X+Y+Z+`+`+ @3 3 b.+ + '.j.3 [+4+4+4+4+4+4+4+4+4+4+4+4+4+4+4+4+4+4+4+4+4+4+4+4+4+4+4+4+4+4+.@3 3 f.0 # # # # h + + ",
"# +@@@3 3 b.Q+#@$@`+%@`+ @3 3 &@+ + .@3 3 *@4+4+4+4+4+4+4+4+4+4+4+4+4+4+4+4+4+4+4+4+4+4+4+4+4+4+4+4+4+4+=@3 3 -@+ $ # # # # C++ ",
";@>@3 ,@'@)@$@`+`+!@~@{@]@3 ^@/@+ + (@3 3 _@4+4+4+4+:@<@[@9+4+4+4+4+4+4+4+4+4+4+4+4+}@4+4+4+4+4+4+4+4+4+=@3 3 -@+ + ( # # # # : ",
"&@3 3 |@1@`+`+`+2@3@4@5@3 _+6@_ # + (@3 3 7@4+4+4+4+8@3 3 m+4+4+4+4+4+4+4+4+4+4+4+4+3 *@4+4+4+4+4+4+4+4+=@3 3 -@+ + + 9 # # # # ",
"9@3 3 0@Z+`+`+Z+ @a@b@3 c@j++ + : # { 3 3 d@4+4+4+4+e@3 3 f@4+4+4+4+4+4+4+4+4+4+4+g@3 h@4+4+4+4+4+4+4+4+i@3 3 j@+ + + + 9 # # # ",
"3 3 q+2@`+`+k@l@m@n@3 o@3 o.#++ + + p@3 3 q@4+4+r@s@t@3 3 u@4+4+4+4+4+4+4+4+4+4+4+v@3 w@4+4+4+4+4+4+4+4+x@3 3 i+@ + + + + : @ # ",
"3 y@ @%@`+`+0@z@A@B@C@D@3 3 E@+ + + F@3 3 G@H@%.N.P.I@3 3 J@4+4+4+4+4+4+4+4+4+4+4+K@3 L@4+4+M@r@4+4+4+N@O@3 P@w.# @ + + + + + $ ",
"3 Q@%@`+`+k@R@S@T@T@T@U@V@W@M+X@'.a.q+3 3 Y@+.V V V Z@3 `@4+4+4+4+4+4+4+4+4+4+4+4+K@3 5  #M.V $.&..#+#@###3 $#%## # # + + + + + ",
"3 &#`+`+`+{@*#W@T@T@T@T@T@=#-#3 L+&@;#3 >#,#V V V V '#3 )#4+4+4+4+4+4+4+4+4+4+4+4+K@3 !#O.V +.V V V V V ~#3 >+{#]#(.# # h + + + ",
"3 ^#`+`+k@/#3 (#_#T@T@T@T@T@T@:#W@3 4 3 _+<#+.V V V [#3 }#4+4+4+4+4+4+4+4+4+4+4+4+|#3 5 r.V V V @.&.+.#.1#3 o.% & :.(.# # : + + ",
"3 2#3#3#4#5#3 3 6#7#T@T@T@T@T@T@T@8#3 3 9#0#a#O.@.b#k+3 c#4+4+4+4+4+4+4+4+4+4+4+4+K@3 *#d# #N.N.#.$.@.d#3 3 m % & & * 0 # # : + ",
"0#3 3 @@e#3 r+f#3 g#h#T@T@T@T@T@T@T@i#j#k#3 3 3 e#l#u+3 c#4+4+4+4+4+4+4+4+4+4+4+4+m#3 n#3 3 3 3 3 o#p#!#3 3 q#r#;.% {#h $ # # _ ",
"K+3 3 3 3 7 E j+.@3 (#s#i#T@T@T@T@T@T@t#u#k#3 W@v#w#(#3 |#4+4+4+4+4+4+4+4+4+4+4+4+|#3 n#x#4 _+3 3 3 3 3 3 y#z#+ + 9 + + + 9 # # ",
"#+.+3 3 /+A#a b #+-+3 3 g#B#T@T@T@T@T@T@T@C#D#E#T@T@j#F#G#H#I#J#J#J#J#J#J#H#K#4+4+|#3 L#M#N#'.6@O#P#5 Q#3 R#g++ + + 9 + + + @ # ",
"+ j+-+X@S#T#7.[ # #+{ U#3 3 W@s#V#i#T@T@T@T@T@T@T@T@V#W#X#X#X#X#X#X#X#X#X#X#X#X#Y#Z#3 `#@ + + + + g.^  $.$+$a.+ + + + = + = @ # ",
"9 + + + | & } [ # # : @$#$O@$$3 3 %$B@&$t#T@T@T@T@T@B#W#X#X#X#X#X#X#X#X#X#X#X#X#X#X#3 e+# @ + + + + : # # # # + + + + + _ # # # ",
"# $ + + d . . *$$ # # =$D.D.-$&@;$>$3 k#v#B@&$i#T@,$g#'$)$Y#!$X#X#X#X#X#X#X#X#X#X#X#3 ! ,.[.[.8.+ + + h # # # # + + + + + : # # ",
"# # $ + + + + + + $ # # ( + + + | ~${$]$o.^$3 3 k#<+k#/$4+4+4+4+4+4+4+4+4+8+K#H#($W#3 +@,.[.[.,.+ + + + + # # # # + + : + + h # ",
"# # # 0 + + + + + + 9 # # 0 + + h | | {#+ '._$:$<$[$3 }$4+4+4+4+4+4+4+4+4+4+4+4+4+3 |$'.,.[.[.,.# + + + + + # # # # # # ( + + + ",
"# # # # # + + + + + + = 0 # $ + + + + + = + + 9 [.1$3 2$4+4+4+4+4+4+4+4+4+4+4+4+4+3 D@a.+ # # # # # + + + + + # # # # # # $ + + ",
"# # # # # # + + + + + + + @ # 0 + + + @ # # + + C.1$3 3$4+4+4+4+4+4+4+4+4+4+4+4+4$3 >+a.+ + $ # # # # h + + + + @ # # # # # @ + ",
"# # # # # # # + + + + + + + 0.# 0 + + : 0 # # + + { 3 3 e@M.5$4+4+4+7+5+4+4+4+4+5 3 )++ + + + 9 a a a # 9 + + + + ( # # # # # # ",
"( # # # # # # # + + + + + + C+0 # # + + + @ # # + ; 3 3 6$%.M.7$6.3 3 3 H+8$9$0$5 3 ) + + + + + } 7.7.# # 9 + + + + = # # # # # ",
"+ 9 # # # # # # # = + + + $ # # # # # + + + @ # # a$4 3 b$+.V ! 3 3 3 3 3 3 c$V d$3 ) # = + + + & & 7.# # # + + + + + h # # # # ",
"+ + = 0 # # # # # # 9 + + _ # # # # # # + + + $ # ^ 4 3 >+V %.) 3 3 3 3 3 j.%.V d$3 ) # # ( + + . . . # # # # # @ + + + + # # # ",
"0 + + : 0 # # # # # # $ + + = 0 # # # # # + + + $ / e$3 k+M.$.f$3 3 g$h$3 >+V V i$3 ) # # # $ + + + + + 0.# # # # # + + + + @ # ",
"# # + + + $ # # # # # # $ + + h 0 # # # # # + + + $ o#3 _+%.&.j$3 3 k$5 3 ' V V 4 3 ) # # # # @ + + + + + = # # i a a * + + + 0.",
"# # # + + + $ # # # l$a a m$+ + + @ # # n$[ [ r#+ + o$3 5 V V p$3 3 q$3 3 N.V V 4 3 )+# # # # # >.8.8.g.+ + h # a 7.7.a h + + + ",
"# # # # + + + 0.# # (.7.7.[ # + + + $ # (.7.7.[ = + )+3 r$s$M.p$3 t$u$3 3 N.V v$w$3 x$+ @ # # # ,.[.[.y$+ + + + a 7.7.a # h + + ",
"# # # # # = + + 9 # (.7.7.[ # # + + + $ (.7.7.[ # 9 )+3 9#w$z$A$3 3 B$3 3 C$5 T+3 3 D$+ + $ # # ,.[.[.,.$ + + +   E$a i # # C++ ",
"# # # # # # 9 + + _ l$a a b # # # + + + $ (.(.n$= + F$3 3 3 3 3 3 3 -@r+3 3 3 3 3 3 G$+ + + + # >.,.,.>.# @ + + + + = # # # # = ",
"= 0 # # # # # $ + + = 0 # # # # # # + + + $ # # + + j+c@>+u$H$) ' +$c+I$J$K$L$f$M$N$O$# + + + : # # # # # # @ + + + + h # # # # ",
"+ + @ # # # # # 0 + + + @ # # # # # # : + + 0.# $ + + + 9 + + : 0 # # . & & . + # # # # # : + + h # # # # # # # + + + + + # # # ",
"+ + + $ # # # # # [.C.C.+ $ # # # # # # 9 + + 9 # @ + + + = + + = 0 # a } & . + + # # # # # _ + + + # # # # # # # h + + + + $ # ",
"# + + + 0.# # # # [.[.C.+ + $ # # # # # # ( + + 9 # # + + + h + + + @ # # = + + + P$,.,.# # # ( + + + @ # # # # # # : + + + + _ ",
"# # = + + 9 # # # [.[.[.+ + + 0.# # # # # # 0 + + : 0 # : + + + + + + @ # # 9 + + C.Q$[.# # # # n$. .   @ # # # # # # = + + + + ",
"# # l$c R$S$c 0 # # # # # : + + ( # # # # # # 0 + + : 0 # ( + + + + + + $ # # @ + C.C.9.# # # # a T$& . + 0.# # # # # # _ + + + ",
"# # (.7.:.& & + @ # # # # # ( + + 9 # # # # # # # + + + @ # @ + + + + + + + @ # @ 8.8.8._ # # # a 7.7.. + + 9 # # # # # # 9 + + ",
"# # (.7.7.7.& + + $ # # # # # $ + + = 0 # # # # # # + + + $ # # h + + + + 9 # # # # h + + h # # i a a i h + + : # # # # # # 0.+ ",
"9 # l$a U$V$a + + + $ # # # # # 0 + + : 0 # # # # # # + + + $ # # : + + + # # # # # # : + + + # # # # # # h + + h # # # # # # $ ",
"+ : 0 # # # # # C++ + 9 # # # # # # + + + @ # # # # # # + + + 0.# # 9 + + + 0.# # # # # ( + + + @ # # # # # _ + + + # # # # # # ",
"+ + + $ # # # # # 9 + + 9 # # # # # # + + + $ # # # # # # : + + ( # # @ + + + = # # # # # $ + + + 0.# # # # # ( + + + # # # # # "};
