/* XPM */
static char * wall_xpm[] = {
"64 64 93 2",
"  	c #848582",
". 	c #828380",
"+ 	c #838482",
"@ 	c #838481",
"# 	c #787977",
"$ 	c #5D5D5D",
"% 	c #797A77",
"& 	c #80817F",
"* 	c #7F807D",
"= 	c #80817E",
"- 	c #81827F",
"; 	c #676766",
"> 	c #656665",
", 	c #818280",
"' 	c #828381",
") 	c #7E7F7C",
"! 	c #727271",
"~ 	c #7C7D7A",
"{ 	c #747472",
"] 	c #7B7C7A",
"^ 	c #7D7D7B",
"/ 	c #6B6C6B",
"( 	c #7F7F7D",
"_ 	c #616160",
": 	c #636463",
"< 	c #696968",
"[ 	c #6D6D6C",
"} 	c #6E6E6D",
"| 	c #5F5F5F",
"1 	c #666766",
"2 	c #686968",
"3 	c #646464",
"4 	c #767775",
"5 	c #717270",
"6 	c #606060",
"7 	c #6F6F6E",
"8 	c #7F807E",
"9 	c #7E7F7D",
"0 	c #797A78",
"a 	c #626261",
"b 	c #7A7A78",
"c 	c #626262",
"d 	c #7D7E7B",
"e 	c #747473",
"f 	c #616161",
"g 	c #696A69",
"h 	c #70706F",
"i 	c #737472",
"j 	c #6A6A69",
"k 	c #6B6B6A",
"l 	c #7A7B79",
"m 	c #686867",
"n 	c #6D6E6C",
"o 	c #777876",
"p 	c #787876",
"q 	c #7C7C7A",
"r 	c #7B7C79",
"s 	c #5E5E5E",
"t 	c #6A6B6A",
"u 	c #676867",
"v 	c #5F605F",
"w 	c #6E6F6D",
"x 	c #626362",
"y 	c #636362",
"z 	c #767674",
"A 	c #646463",
"B 	c #656564",
"C 	c #7D7E7C",
"D 	c #6C6C6B",
"E 	c #777775",
"F 	c #757674",
"G 	c #747573",
"H 	c #787976",
"I 	c #70706E",
"J 	c #757573",
"K 	c #727371",
"L 	c #737371",
"M 	c #636363",
"N 	c #6C6D6B",
"O 	c #666665",
"P 	c #70716F",
"Q 	c #717170",
"R 	c #5D5E5D",
"S 	c #7C7D7B",
"T 	c #7A7B78",
"U 	c #6F706E",
"V 	c #81817F",
"W 	c #6D6E6D",
"X 	c #727270",
"Y 	c #7F807C",
"Z 	c #6F706F",
"` 	c #848482",
" .	c #7E7E7C",
"  . + @ @ @ # $ $ $ %   & *   . = - + @ - .   @ $ $ ; .   @   $ $ > ,   . = @ - ' @ + @ + @ . ) = ' + ! $ $ $ $ $ $ $ $ $ $ $ $ ",
"+ .     . @ . ~ $ $ >   - . . @ = &     @ + @ { $ $ $ ]   @ ^ $ $ /     @ . . . . '         @ ) &   ( _ $ $ : < [ } [ $ $ $ $ $ ",
"@ = +   - , + * | $ $ 1 2 ] +   @ @ @     ~ / $ $ $ $ 3 4 5 $ $ $ 6 & @ &     + + @ @ ' . @   . + ' 7 $ $ < = 8 8 8 , % | $ $ $ ",
". 9 , @ - .   0 $ $ $ $ $ a b b =       . 1 $ $ $ c $ $ $ $ $ $ $ $ d   = - - @ + @ , - . +   @   e $ $ $ ) . . ' - . @ ) 1 $ $ ",
". 8 - . - @ ' e $ $ $ $ $ $ f c > g h i j $ $ $ $ < $ $ $ $ $ $ $ $ < * @ . @ . @ ' - . + @ & ] # $ $ $ k + = d - , - @   l a $ ",
". . @ . . @ = m $ $ f ~ ^ i n f $ $ $ $ $ $ $ $ $ $ $ $ $ $ $ $ $ $ $ m   @   +     ' @ + * o j 6 $ $ $ p @ = 8 - . . - @ @ q $ ",
".     @ . @ i $ $ $ #   @ . - r 1 $ $ $ $ $ $ $ $ $ $ $ s t i u v $ $ $ m )     +   .   . ; $ $ | $ $ w . @ 8 - @   @ , , + @ x ",
". +   @ .   y $ v z .   @ +   , 4 $ $ $ $ A B $ $ $ 6 4 d - = C 0 5 $ $ $ $ D E =   F < | $ $ $ $ $ $ F . @ @ & . + @ . . @   i ",
"+ @   .     $ $ n .     ' ' @ + = $ $ $ $ $ $ $ $ $ p @ +   - + , . d $ $ $ $ $ | s $ $ $ $ $ $ $ $ $ ) @ +   = , @ @ @ ' @ + G ",
"  - . ' + & $ $ g ^ & ' . @ @   ~ $ $ $ $ $ $ $ $ $ ^   - @ - ' = @ + 5 $ $ $ $ $ $ $ $ $ $ $ $ $ $ $ @   @   , . ' @ @ @ @ @ z ",
"@ . '   C / $ $ $ 7 = + +   + . h $ $ $ $ $ $ $ $ $ H   ' . , , = -   ( $ $ $ $ $ $ [ q ( ) ) 5 $ $ $ @   .   + + @ @ @ + + @ % ",
"' +   + I $ $ $ $ $ J . & r K | $ $ $ $ $ $ $ $ $ $ 6 ~ @ + . = . @   # $ $ $ c K 9 & @     @ l $ $ 6     '       + @ @ +     o ",
"  - C L $ $ $ $ $ $ $ f 6 $ $ $ $ $ $ $ x M M $ $ $ $ v H   @ @   . d ; $ $ D ( .   + '     - 0 $ $ ;   + @   @ @ @ @ @ +     J ",
"+ 4 D $ $ $ $ $ $ $ $ $ $ $ $ $ $ k d * * 8 = H $ $ $ $ : , 8 ~ o N $ $ $ $ d   + +   . @   . n $ $ u @ . + @ & , @ + + +     2 ",
"D $ $ $ $ $ $ 1 O $ $ $ $ $ $ $ u ^   & * + + @ ] > $ $ $ $ $ | $ $ $ $ $ $ K   &     @ . 0 < $ $ $ $ J @     & . @ . =     ~ $ ",
"$ $ $ $ $ $ K = = P $ $ $ $ $ w ] - . * d - & . + = 5 $ $ $ $ $ $ $ 6 v $ $ | # % + . p m $ $ $ $ $ $ s ]   @ @   ' & @   e $ $ ",
"$ $ $ $ $ n .     - $ $ $ $ $ l @ + . - C 8 - 9 ,   , > $ $ $ $ 2 % 8 d a $ $ $ $ 6 6 $ $ $ $ c Q $ $ $ m &   @ +   @   e $ $ $ ",
"$ $ $ $ ; *   - &   < $ $ $ $ % + @ . @ = - + * - @   K $ $ $ t & @ , + l $ $ $ $ $ $ $ $ $ R o . } $ $ $ O J C 9 ( - G $ $ $ $ ",
"O $ $ $ ) + , @ -   I $ $ $ $ ~   . * . - - . S & @   i $ $ $ l   8 ) ' # $ $ $ $ $ $ $ $ $ $ D Q $ $ $ $ $ $ $ f $ $ $ $ $ $ 6 ",
"& $ $ 6 + ' & @ = + w $ $ $ $ z @ + . & ) * = l (     K $ $ $ 8 + = @ @ k $ $ $ $ $ $ ! k $ $ $ $ $ $ $ $ $ $ $ $ $ $ $ $ 4 F S ",
"4 $ $ j   = - . * ' D $ $ $ $ $ 5 .   - ] ( - = @   d j $ $ $ 0 + @   ] $ $ $ $ $ [ ^ . F $ $ $ $ } b ~ Q $ $ $ $ $ $ $ 2 @ = ( ",
"$ $ $ ]   ) + = =   < $ $ $ $ $ $ 4 ' = ~ - @ +   # $ $ $ $ $ : J G 7 $ $ $ $ 7 T - + b 3 $ $ 7 ^ - @ = . 9 M $ $ $ $ 2 = . - r ",
"$ $ $ =   q . @ @ - $ $ $ $ $ $ $ $ ) @ ' .     4 $ $ $ $ $ $ $ $ $ $ $ $ $ < . =   d c $ $ 4 -   + , -   @ S v $ $ : ~ @ . & ) ",
"$ $ a @ 9 0 +   # [ $ $ $ $ $ $ $ $ $ k Q / j j $ $ $ $ $ $ $ $ $ $ $ $ $ > * + .   h $ $ u @ . @ . = = . @ . P $ $ G - @ . * 9 ",
"$ $ c 8 r d @ o f $ $ $ $ $ w G [ $ $ $ $ $ $ $ $ $ K b d ) % $ $ $ $ $ D C +     . B $ v l + = , . - - .     # $ m = + @ + @ , ",
"$ $ $ P - @ F $ $ $ $ B 2 r , ' , P $ $ $ $ $ $ $ D . @     @ O $ $ $ $ ( @ +   * U $ | 0 ' * * = ' @ - . @ ' 0 $ M d @ ' @     ",
"$ $ $ $ 5 P $ $ $ $ i = & @ ' = ' , l J > $ $ $ $ d + = 8 =   L $ $ $ z +   - 0 1 $ $ i @ . * * * - & C 8 @ @ ~ $ $ I ,   @     ",
"$ $ $ $ $ $ $ $ $ D .   ) - + ) ~ - , . S $ $ $ f @   = ( d . { $ $ $ .     L $ $ $ $ =   * ' 9 ) 8 ) ~ -   + P $ $ $ < [ N 7 h ",
"J j $ $ $ $ $ $ O %     * 9 - * q . '   @ A $ $ 6   @ . . @ + _ $ $ U . ) ) 6 $ $ $ ;   , 8 @ ) ) & - & + 8 L $ $ $ $ $ $ $ $ $ ",
"' d o $ $ $ $ $ I -   @ @ . . = r = 9 -   m $ $ $ -   @ . ' T $ $ $ m [ v | $ $ $ $ { 8 ~ . - * * @ + + . } $ $ $ $ $ $ $ $ $ $ ",
". @ - U $ $ $ $ i     . .   + , ^ C * &   F $ $ $ )   ' 8 { $ $ $ $ $ $ $ $ $ $ $ $ I - S ' @ = - .   = M $ $ $ $ j h a $ $ $ $ ",
"& . + ) 2 $ $ $ F   - @ - 8 . 8 d * . -   ] $ $ $ # @ C D $ $ $ $ $ $ $ $ $ $ $ $ $ a + @ @ ' @ + . G $ $ $ $ o * - . ~ $ $ $ : ",
"- .   @ l [ $ $ i   @   & ) . , = = @ . @ J $ $ $ $ 6 $ $ $ $ $ $ $ $ $ 6 [ z I $ $ $ w o d = ) U | $ $ $ $ K -   ' @ @ $ $ $ o ",
". . . + ' d $ $ R #     = ) = . = ( , ' + P $ $ $ $ $ $ $ $ $ $ $ $ $ R 8 , @ , H $ $ $ $ $ $ $ $ $ $ $ $ S . +   @     $ $ s = ",
"@ @ ,     . $ $ $ $ e @ - * - - . , - @   P $ $ $ $ $ $ $ $ $ $ $ $ $ #   & . . @ B $ $ $ $ $ $ $ $ $ $ $ . & 8 =     ~ $ $ 1 - ",
"- @ , .   + s $ $ $ $ @ + @ + , '   +     u $ $ $ $ ; i ^ b $ $ $ ; o * @ - . &   D $ $ $ $ $ $ $ $ $ $ 3   8 * ( ' 4 $ $ $ G V ",
"* ' = = @ @ $ $ $ $ $ %   + + & (   +   = $ $ $ $ i = . ] 7 $ $ n ) ^ q & + ' @   < $ $ $ $ z G u $ $ $ /   - @ * P $ $ $ $ ) C ",
"= , = ,   = $ $ $ $ $ $ 5 .   @ 8   . ( { $ $ $ } C . . [ $ $ $ S 8 r ^ d , @   - a $ $ $ 5 ' , ( $ $ $ $ < B m < $ $ $ $ $ w ~ ",
"@ @ @ + - 1 $ $ $ $ $ $ $ L   ' @ - 8 / $ $ $ F * @ - 5 $ $ $ N , ) ~ * S ' @   O $ $ s z -   @ + x $ $ $ $ $ $ $ $ $ U $ $ B r ",
"    = 5 $ $ $ $ $ $ $ $ $ $ 6 < } > $ $ $ $ r - # j s $ $ $ $ P - C ) - ,   0 f $ $ $ ~ .   = ) - 2 $ $ $ $ $ $ $ D p . W $ D * ",
"L 5 m $ $ $ $ l ^ 7 $ $ $ $ $ $ $ $ $ $ $ K ) d y $ $ $ $ $ $ l ' * = '   - ; $ $ $ $ @ = - = & @ m $ $ $ g $ $ $ ) * . * X U ) ",
"$ $ $ $ $ $ [ r I | $ $ $ $ $ $ $ $ $ $ $ t $ $ $ $ $ $ $ $ $ b @ @ - r P f $ $ $ $ }   ] - @ @ @ $ $ $ p - # $ s p ~ Y ) Z $ | ",
"$ $ $ $ $ $ # $ $ $ $ $ $ $ $ $ $ $ $ $ $ $ $ $ $ $ $ $ $ $ $ | N N y $ $ $ $ $ $ $ 4   ) @ . . # $ $ g .   - ; $ $ } n $ $ $ $ ",
"g $ $ $ $ $ $ $ $ $ $ $ $ f $ $ $ $ $ $ $ $ $ $ $ A ; $ $ $ $ $ $ $ $ $ $ $ $ $ $ $ H   .   & T 6 $ [ S   ' i $ $ $ A a $ $ $ $ ",
"- r 7 $ $ $ $ $ $ $ $ ] * 0 $ $ $ $ $ $ $ $ $ $ j 9 = ! $ $ $ $ $ $ $ $ $ $ $ $ $ $ G     l i s $ $ - @ , n $ $ $ 7 H 4 l ^ o 1 ",
"@ + - $ $ $ $ $ $ : ~ + , e $ $ $ $ $ f $ $ $ $ l     l $ $ $ $ f b C ( ) 4 n $ $ $ s o r $ $ $ $ $   . Q $ $ $ | , ' & @   - ) ",
"= + @ $ $ $ $ i % 8 '   q $ $ $ $ $ F ~ l $ $ $ ]   4 > $ $ $ u 8 + @ = ) @ d < $ $ $ $ $ $ $ $ $ $ n D $ $ $ $ h   + ^ ~   * Y ",
"=   ) $ $ $ 4 . 8     l $ $ $ $ $ F . . - $ $ $ c n $ $ $ $ $ o + , & d l . & F $ $ $ $ $ $ $ $ $ $ $ $ $ $ $ $ G + 8 T )   = @ ",
"@ = O $ $ i - + @   F $ $ $ $ R F . - l 5 $ $ $ $ $ $ $ $ $ P = . 8 9 q q , , ( $ $ $ $ $ < g $ $ $ $ $ | $ $ $ D ` = r &   -  .",
"  < $ $ r . .   + T $ $ $ $ f b . 8 { x $ $ $ $ $ $ $ $ $ $ - @ * ) ) ~ ) . @ @ f $ $ $ 6 { ; $ $ $ $ n 4 $ $ $ | . @ . +   + . ",
"k $ $ } + + + @ i R $ $ $ $ 5 - e 6 $ $ $ $ $ $ $ $ $ $ $ $ o   & * 8 ) ,   @ F $ $ $ $ $ $ $ $ $ $ $ $ $ $ $ $ $ } # * - ~ d J ",
"$ $ > =   = p 3 $ $ $ $ $ $ $ y $ $ $ $ $ | [ J r K x $ $ $ B - + . ( )     { $ $ $ $ $ $ $ $ $ $ $ $ $ $ $ $ $ $ $ $ $ $ $ $ $ ",
"$ $ z = S 5 $ $ $ $ $ $ $ $ $ $ $ $ $ $ 1 ( - ,   . = d B $ $ E     @ . + * $ $ $ $ $ $ $ $ 6 G ] r 0 0 < $ $ $ $ $ $ $ $ $ $ $ ",
"$ $ s B $ $ $ $ $ R 6 1 s $ $ $ $ $ $ ; =   + = ( & , + r $ $ $ [ h l E 2 $ $ $ $ $ $ $ $ $ 0 - + @ - @ = > $ $ $ $ $ $ $ 3 P 4 ",
"$ $ $ $ $ $ $ p b ( 8 8 ( 2 $ $ $ $ $ }   @ r 0 ~ - = - = N $ $ $ $ $ $ $ $ $ $ $ $ $ $ $ G . - & - . = & p $ $ $ $ $ $ b 8 . . ",
"$ $ $ $ $ $ e 9 = @ + -   C s $ $ $ $ !   @ ^ l ( + * d = i $ $ $ $ $ $ $ $ $ v R $ $ $ O 8 . = & = ) r ) # $ $ $ $ $ p @ ' , - ",
"$ $ $ $ 2 # , ( * ,   - ' @ l | $ $ $ k     8 ) &   ' , . { $ $ $ $ $ $ $ $ $ $ $ $ $ $ r @ + d 8 * C ) ' T $ $ $ $ h ,   8 = . ",
"$ $ $ $ C @ - 9 S ) @ - 8 . * U $ $ $ $ F - * d 9 @     r $ $ $ v Q 4 k $ $ $ $ $ $ $ $ E . , ) C = @ @ ~ m $ $ $ $ l + ' 8 ' , ",
"$ $ $ P @   = q % T - = d . , F $ $ $ $ $ p @ @ @     = 1 $ $ $ * . - T 0 z : $ $ $ $ $ | ) @ . - @   o $ $ $ $ $ $ r   + = = . ",
"$ $ $ r   . . l # q - ) d + ' j $ O h $ $ a d 9 * C 4 < $ $ $ N     - d * . ~ a $ $ $ $ $ ; ) q 8 l m $ $ $ $ $ $ $ ; d   @ @ + ",
"$ $ $ ] . - ' ^ ] * + = = , 4 $ $ } 4 $ $ $ $ a s $ $ $ $ $ $ L @ . @ @ . + @ = D $ $ $ $ $ $ $ $ $ $ $ $ m t $ $ $ $ 1 r .   @ ",
"$ $ $ l - ' & = ~ *   ' @ d f $ $ $ a $ $ $ $ $ $ $ $ $ $ $ $ E @ & - @   @ @ @ - ^ $ $ $ $ $ $ $ $ $ R J & & d s $ $ $ $ x } F ",
"$ $ $ d - , . - ) -   @ + u $ $ $ $ f B < K J } y $ $ $ $ $ $ . @ - - & & @       @ G 5 P $ $ $ $ $ 7 q = @ '   G $ $ $ $ $ $ $ ",
"$ $ $ r + + + + . +   L A $ $ $ $ B ] ) ( . - , = ( q M $ $ k   + - - , .   + @     = . . } $ $ $ $ * @ @ . * + ~ $ $ $ $ $ $ $ "};
